<svg width="165" height="30" viewBox="0 0 165 30" fill="none" xmlns="http://www.w3.org/2000/svg">
<g clip-path="url(#clip0_8173_5846)">
<path fill-rule="evenodd" clip-rule="evenodd" d="M14.8649 0C20.4219 0 23.2006 -0.000153691 25.2703 1.20556C26.6261 1.99548 27.7523 3.13183 28.535 4.5C29.7299 6.58845 29.7297 9.3924 29.7297 15C29.7297 20.6076 29.7299 23.4116 28.535 25.5C27.7523 26.8682 26.6261 28.0046 25.2703 28.7945C23.2006 30.0002 20.4219 30 14.8649 30C9.30778 30 6.52909 30.0002 4.45946 28.7945C3.10361 28.0046 1.9775 26.8682 1.1947 25.5C-0.000152306 23.4116 0 20.6076 0 15C0 9.3924 -0.000152306 6.58845 1.1947 4.5C1.9775 3.13183 3.10361 1.99548 4.45946 1.20556C6.52909 -0.000153691 9.30778 0 14.8649 0ZM16.3514 3C9.78361 3 4.45946 8.37255 4.45946 15C4.45946 21.6275 9.78361 27 16.3514 27C22.9191 27 28.2432 21.6275 28.2432 15C28.2432 8.37255 22.9191 3 16.3514 3Z" fill="white"/>
<path d="M26.757 15C26.757 19.1421 23.4293 22.5 19.3245 22.5C15.2197 22.5 11.8921 19.1421 11.8921 15C11.8921 10.8579 15.2197 7.5 19.3245 7.5C23.4293 7.5 26.757 10.8579 26.757 15Z" fill="white"/>
<path d="M159.452 8.44403C161.114 8.44403 162.45 8.95898 163.46 9.98896C164.486 11.0025 165 12.4249 165 14.2559V22.2257H161.578V14.7218C161.578 13.6592 161.309 12.8499 160.772 12.2941C160.234 11.7219 159.5 11.4358 158.572 11.4358C157.643 11.4358 156.901 11.7219 156.347 12.2941C155.809 12.8499 155.541 13.6592 155.541 14.7218V22.2257H152.118V14.7218C152.118 13.6592 151.85 12.8499 151.312 12.2941C150.774 11.7219 150.041 11.4358 149.112 11.4358C148.167 11.4358 147.417 11.7219 146.863 12.2941C146.325 12.8499 146.056 13.6592 146.056 14.7218V22.2257H142.634V8.64023H146.056V10.2832C146.496 9.71101 147.059 9.26146 147.743 8.93446C148.443 8.60753 149.21 8.44403 150.041 8.44403C151.1 8.44403 152.045 8.67293 152.876 9.13066C153.707 9.57203 154.351 10.2096 154.807 11.0434C155.247 10.2587 155.883 9.62926 156.714 9.15518C157.561 8.68103 158.474 8.44403 159.452 8.44403Z" fill="white"/>
<path d="M140.113 8.64015V22.2257H136.667V20.5091C136.227 21.0977 135.649 21.5636 134.931 21.9069C134.231 22.2339 133.465 22.3973 132.634 22.3973C131.575 22.3973 130.638 22.1767 129.823 21.7352C129.008 21.2775 128.365 20.6154 127.892 19.7489C127.436 18.8661 127.208 17.8198 127.208 16.61V8.64015H130.629V16.1196C130.629 17.1986 130.898 18.0323 131.436 18.6209C131.974 19.1931 132.708 19.4792 133.636 19.4792C134.581 19.4792 135.323 19.1931 135.86 18.6209C136.398 18.0323 136.667 17.1986 136.667 16.1196V8.64015H140.113Z" fill="white"/>
<path d="M120.048 22.4464C118.94 22.4464 117.945 22.2502 117.065 21.8578C116.185 21.4492 115.485 20.9014 114.963 20.2148C114.458 19.5282 114.181 18.768 114.132 17.9342H117.579C117.644 18.4574 117.897 18.8906 118.336 19.234C118.792 19.5772 119.355 19.7489 120.023 19.7489C120.675 19.7489 121.18 19.6181 121.539 19.3566C121.913 19.095 122.101 18.7598 122.101 18.3511C122.101 17.9097 121.872 17.5828 121.416 17.3702C120.976 17.1413 120.268 16.8961 119.29 16.6345C118.28 16.3893 117.449 16.1359 116.797 15.8743C116.161 15.6127 115.607 15.2122 115.134 14.6728C114.678 14.1332 114.45 13.4057 114.45 12.4903C114.45 11.7382 114.662 11.0515 115.086 10.4303C115.525 9.80909 116.145 9.31867 116.943 8.95897C117.758 8.59934 118.711 8.41949 119.803 8.41949C121.416 8.41949 122.703 8.82817 123.665 9.64559C124.626 10.4467 125.156 11.5339 125.254 12.9071H121.979C121.93 12.3676 121.702 11.9425 121.294 11.632C120.903 11.305 120.373 11.1415 119.705 11.1415C119.086 11.1415 118.605 11.2559 118.263 11.4848C117.937 11.7137 117.774 12.0325 117.774 12.4412C117.774 12.8989 118.002 13.2505 118.459 13.4956C118.915 13.7245 119.624 13.9616 120.585 14.2068C121.563 14.452 122.37 14.7055 123.005 14.967C123.641 15.2286 124.187 15.6373 124.643 16.1932C125.115 16.7326 125.36 17.452 125.376 18.3511C125.376 19.1359 125.156 19.8388 124.716 20.4601C124.292 21.0813 123.673 21.5718 122.859 21.9314C122.06 22.2748 121.123 22.4464 120.048 22.4464Z" fill="white"/>
<path d="M102.577 10.602C103.017 9.98077 103.62 9.46574 104.386 9.05707C105.168 8.63205 106.056 8.41949 107.05 8.41949C108.207 8.41949 109.25 8.70555 110.179 9.2778C111.124 9.84997 111.865 10.6674 112.404 11.73C112.957 12.7763 113.235 13.9943 113.235 15.3839C113.235 16.7735 112.957 18.0078 112.404 19.0868C111.865 20.1494 111.124 20.975 110.179 21.5636C109.25 22.1521 108.207 22.4464 107.05 22.4464C106.056 22.4464 105.176 22.2421 104.41 21.8333C103.661 21.4246 103.05 20.9096 102.577 20.2884V28.6996H99.1553V8.64022H102.577V10.602ZM109.739 15.3839C109.739 14.5665 109.568 13.8635 109.225 13.2749C108.9 12.67 108.46 12.2123 107.905 11.9017C107.368 11.5911 106.782 11.4358 106.145 11.4358C105.526 11.4358 104.94 11.5993 104.386 11.9262C103.848 12.2368 103.408 12.6946 103.066 13.2994C102.74 13.9044 102.577 14.6155 102.577 15.433C102.577 16.2504 102.74 16.9615 103.066 17.5664C103.408 18.1713 103.848 18.6372 104.386 18.9642C104.94 19.2748 105.526 19.4301 106.145 19.4301C106.782 19.4301 107.368 19.2667 107.905 18.9397C108.46 18.6127 108.9 18.1468 109.225 17.5419C109.568 16.937 109.739 16.2177 109.739 15.3839Z" fill="white"/>
<path d="M94.9435 7.0217C94.3399 7.0217 93.8353 6.8337 93.428 6.45769C93.0363 6.06533 92.8408 5.58305 92.8408 5.01085C92.8408 4.43866 93.0363 3.96455 93.428 3.58854C93.8353 3.19618 94.3399 3 94.9435 3C95.5462 3 96.0435 3.19618 96.4344 3.58854C96.8417 3.96455 97.0454 4.43866 97.0454 5.01085C97.0454 5.58305 96.8417 6.06533 96.4344 6.45769C96.0435 6.8337 95.5462 7.0217 94.9435 7.0217ZM96.6299 8.64022V22.2257H93.208V8.64022H96.6299Z" fill="white"/>
<path d="M84.4889 22.4464C83.1853 22.4464 82.0117 22.1603 80.9689 21.5881C79.9261 20.9995 79.1034 20.1739 78.4999 19.1113C77.9134 18.0487 77.6206 16.8226 77.6206 15.433C77.6206 14.0433 77.9216 12.8172 78.5244 11.7545C79.1443 10.6919 79.9834 9.87449 81.0425 9.30232C82.1016 8.71372 83.2826 8.41949 84.5863 8.41949C85.8899 8.41949 87.0717 8.71372 88.1308 9.30232C89.1899 9.87449 90.0209 10.6919 90.6244 11.7545C91.2435 12.8172 91.5527 14.0433 91.5527 15.433C91.5527 16.8226 91.2353 18.0487 90.5999 19.1113C89.9807 20.1739 89.1327 20.9995 88.0572 21.5881C86.9981 22.1603 85.8089 22.4464 84.4889 22.4464ZM84.4889 19.4546C85.108 19.4546 85.6863 19.3075 86.2244 19.0132C86.7781 18.7026 87.2181 18.2449 87.5444 17.64C87.8699 17.0351 88.0334 16.2994 88.0334 15.433C88.0334 14.1414 87.6908 13.1524 87.0063 12.4657C86.3381 11.7627 85.5153 11.4112 84.538 11.4112C83.5599 11.4112 82.7371 11.7627 82.0689 12.4657C81.4171 13.1524 81.0916 14.1414 81.0916 15.433C81.0916 16.7245 81.4089 17.7217 82.0444 18.4247C82.6962 19.1113 83.5108 19.4546 84.4889 19.4546Z" fill="white"/>
<path d="M69.7572 22.4464C68.4536 22.4464 67.2803 22.1603 66.2374 21.5881C65.1945 20.9995 64.3716 20.1739 63.7686 19.1113C63.182 18.0487 62.8887 16.8226 62.8887 15.433C62.8887 14.0433 63.1901 12.8172 63.793 11.7545C64.4123 10.6919 65.2515 9.87449 66.3107 9.30232C67.3699 8.71372 68.5514 8.41949 69.855 8.41949C71.1586 8.41949 72.34 8.71372 73.3992 9.30232C74.4583 9.87449 75.2892 10.6919 75.8928 11.7545C76.5119 12.8172 76.8211 14.0433 76.8211 15.433C76.8211 16.8226 76.5037 18.0487 75.8682 19.1113C75.2491 20.1739 74.4011 20.9995 73.3259 21.5881C72.2667 22.1603 71.0771 22.4464 69.7572 22.4464ZM69.7572 19.4546C70.3764 19.4546 70.9549 19.3075 71.4927 19.0132C72.0467 18.7026 72.4867 18.2449 72.8126 17.64C73.1385 17.0351 73.3015 16.2994 73.3015 15.433C73.3015 14.1414 72.9592 13.1524 72.2749 12.4657C71.6068 11.7627 70.7838 11.4112 69.8061 11.4112C68.8284 11.4112 68.0055 11.7627 67.3374 12.4657C66.6855 13.1524 66.3596 14.1414 66.3596 15.433C66.3596 16.7245 66.6774 17.7217 67.3129 18.4247C67.9647 19.1113 68.7795 19.4546 69.7572 19.4546Z" fill="white"/>
<path d="M55.0253 22.4464C53.7217 22.4464 52.5484 22.1603 51.5055 21.5881C50.4626 20.9995 49.6397 20.1739 49.0367 19.1113C48.4501 18.0487 48.1567 16.8226 48.1567 15.433C48.1567 14.0433 48.4582 12.8172 49.0612 11.7545C49.6804 10.6919 50.5196 9.87449 51.5788 9.30232C52.638 8.71372 53.8194 8.41949 55.1231 8.41949C56.4267 8.41949 57.6081 8.71372 58.6673 9.30232C59.7266 9.87449 60.5576 10.6919 61.1605 11.7545C61.7798 12.8172 62.0894 14.0433 62.0894 15.433C62.0894 16.8226 61.7716 18.0487 61.1361 19.1113C60.5169 20.1739 59.6695 20.9995 58.594 21.5881C57.5348 22.1603 56.3453 22.4464 55.0253 22.4464ZM55.0253 19.4546C55.6445 19.4546 56.223 19.3075 56.7607 19.0132C57.3148 18.7026 57.7548 18.2449 58.0807 17.64C58.4066 17.0351 58.5696 16.2994 58.5696 15.433C58.5696 14.1414 58.2274 13.1524 57.5429 12.4657C56.8748 11.7627 56.0519 11.4112 55.0742 11.4112C54.0964 11.4112 53.2735 11.7627 52.6054 12.4657C51.9536 13.1524 51.6277 14.1414 51.6277 15.433C51.6277 16.7245 51.9455 17.7217 52.581 18.4247C53.2328 19.1113 54.0476 19.4546 55.0253 19.4546Z" fill="white"/>
<path d="M42.0705 19.5037H47.6924V22.2256H38.6484V5.10892H42.0705V19.5037Z" fill="white"/>
<path d="M73.0787 23.0171C73.3545 22.9055 73.6243 22.7786 73.888 22.6361L73.8937 22.633C75.0577 21.9961 76.0017 21.1162 76.7122 20.0066V22.7026C76.6364 26.3317 73.692 29.25 70.0713 29.25H69.707C66.0863 29.25 63.1422 26.3317 63.0664 22.7026H66.6691C66.7435 24.328 68.0752 25.6226 69.707 25.6226H70.0713C71.5964 25.6226 72.8593 24.4918 73.0787 23.0171Z" fill="white"/>
</g>
<defs>
<clipPath id="clip0_8173_5846">
<rect width="165" height="30" fill="white"/>
</clipPath>
</defs>
</svg>
