<svg width="15" height="15" viewBox="0 0 15 15" fill="none" xmlns="http://www.w3.org/2000/svg">
<path d="M7.73072 3.36741C8.53064 3.50147 9.25728 3.87929 9.83738 4.4582C10.4175 5.03711 10.793 5.76227 10.9304 6.56055M7.85286 0.750122C9.27561 0.990827 10.5732 1.66419 11.6052 2.69099C12.6371 3.72084 13.3088 5.01577 13.55 6.43563M12.4386 12.0846C12.4386 12.0846 11.6662 12.8432 11.4769 13.0657C11.1685 13.3947 10.8052 13.5501 10.3289 13.5501C10.2831 13.5501 10.2343 13.5501 10.1885 13.5471C9.2817 13.4892 8.43903 13.1357 7.80703 12.8341C6.07896 11.9993 4.56156 10.814 3.30061 9.31189C2.2595 8.05962 1.56338 6.9018 1.10236 5.65867C0.818417 4.89999 0.714611 4.30889 0.760408 3.75131C0.790939 3.39482 0.92833 3.09928 1.18174 2.84638L2.22286 1.80739C2.37246 1.66724 2.53122 1.59106 2.68693 1.59106C2.87928 1.59106 3.03499 1.70684 3.13269 1.80435C3.13574 1.80739 3.1388 1.81044 3.14185 1.81349C3.32809 1.98716 3.50517 2.16693 3.69141 2.35888C3.78606 2.45638 3.88376 2.55388 3.98146 2.65443L4.81497 3.48623C5.1386 3.8092 5.1386 4.1078 4.81497 4.43077C4.72643 4.51913 4.64094 4.60749 4.5524 4.6928C4.29593 4.95483 4.4974 4.75378 4.23178 4.99144C4.22567 4.99753 4.21956 5.00058 4.21651 5.00667C3.95394 5.2687 4.00279 5.52464 4.05775 5.69831C4.0608 5.70745 4.06386 5.7166 4.06691 5.72574C4.28368 6.2498 4.58899 6.7434 5.05307 7.33145L5.05612 7.3345C5.89879 8.37044 6.78725 9.17787 7.7673 9.79638C7.89248 9.8756 8.02071 9.93959 8.14284 10.0005C8.25275 10.0554 8.35656 10.1072 8.4451 10.162C8.45731 10.1681 8.46952 10.1772 8.48174 10.1833C8.58554 10.2351 8.68324 10.2595 8.784 10.2595C9.03741 10.2595 9.19617 10.1011 9.24807 10.0493L9.84653 9.45205C9.95033 9.34845 10.1152 9.22353 10.3075 9.22353C10.4968 9.22353 10.6526 9.34236 10.7472 9.44595C10.7503 9.449 10.7503 9.449 10.7533 9.45205L12.4356 11.1309C12.7501 11.4417 12.4386 12.0846 12.4386 12.0846Z" stroke="white" stroke-width="1.5" stroke-linecap="round" stroke-linejoin="round"/>
</svg>
