<svg width="8" height="13" viewBox="0 0 8 13" fill="none" xmlns="http://www.w3.org/2000/svg">
<path d="M6.96667 3.83333C6.83397 3.45683 6.59163 3.12864 6.27085 2.89102C5.95006 2.6534 5.5655 2.51722 5.16667 2.5H2.5C1.96957 2.5 1.46086 2.71071 1.08579 3.08579C0.710714 3.46086 0.5 3.96957 0.5 4.5C0.5 5.03043 0.710714 5.53914 1.08579 5.91421C1.46086 6.28929 1.96957 6.5 2.5 6.5H5.16667C5.6971 6.5 6.20581 6.71071 6.58088 7.08579C6.95595 7.46086 7.16667 7.96957 7.16667 8.5C7.16667 9.03043 6.95595 9.53914 6.58088 9.91421C6.20581 10.2893 5.6971 10.5 5.16667 10.5H2.5C2.10116 10.4828 1.71661 10.3466 1.39582 10.109C1.07503 9.87136 0.832698 9.54317 0.7 9.16667M3.83333 0.5V2.5M3.83333 10.5V12.5" stroke="#808283" stroke-linecap="round" stroke-linejoin="round"/>
</svg>
