<svg width="16" height="16" viewBox="0 0 16 16" fill="none" xmlns="http://www.w3.org/2000/svg">
<path d="M14 5.33333L12.6667 6.66666L11.6667 4.2C11.5724 3.94755 11.4038 3.72961 11.1831 3.5749C10.9625 3.42018 10.7001 3.33596 10.4307 3.33333H5.6C5.32834 3.32709 5.06125 3.404 4.83451 3.55377C4.60778 3.70354 4.43221 3.91901 4.33133 4.17133L3.33333 6.66666L2 5.33333" stroke="#818487" stroke-linecap="round" stroke-linejoin="round"/>
<path d="M4.66675 9.33334H4.67341" stroke="#818487" stroke-linecap="round" stroke-linejoin="round"/>
<path d="M11.3333 9.33334H11.3399" stroke="#818487" stroke-linecap="round" stroke-linejoin="round"/>
<path d="M12.6667 6.66666H3.33333C2.59695 6.66666 2 7.26361 2 7.99999V10.6667C2 11.403 2.59695 12 3.33333 12H12.6667C13.403 12 14 11.403 14 10.6667V7.99999C14 7.26361 13.403 6.66666 12.6667 6.66666Z" stroke="#818487" stroke-linecap="round" stroke-linejoin="round"/>
<path d="M3.33325 12V13.3333" stroke="#818487" stroke-linecap="round" stroke-linejoin="round"/>
<path d="M12.6667 12V13.3333" stroke="#818487" stroke-linecap="round" stroke-linejoin="round"/>
</svg>
