<svg width="22" height="19" viewBox="0 0 22 19" fill="none" xmlns="http://www.w3.org/2000/svg">
<path fill-rule="evenodd" clip-rule="evenodd" d="M2.40537 2.46538C3.30551 1.56552 4.52619 1.06001 5.79897 1.06001C7.07176 1.06001 8.29244 1.56552 9.19257 2.46538L10.599 3.87058L12.0054 2.46538C12.4482 2.00693 12.9778 1.64126 13.5634 1.3897C14.149 1.13813 14.7789 1.00572 15.4162 1.00018C16.0536 0.994643 16.6856 1.11609 17.2756 1.35744C17.8655 1.59879 18.4014 1.9552 18.8521 2.40589C19.3028 2.85657 19.6592 3.3925 19.9005 3.9824C20.1419 4.57231 20.2633 5.20437 20.2578 5.84171C20.2522 6.47905 20.1198 7.10891 19.8683 7.69452C19.6167 8.28014 19.251 8.8098 18.7926 9.25258L10.599 17.4474L2.40537 9.25258C1.50551 8.35245 1 7.13177 1 5.85898C1 4.5862 1.50551 3.36552 2.40537 2.46538V2.46538Z" stroke="#171818" stroke-width="2" stroke-linejoin="round"/>
</svg>
