<svg width="68" height="64" viewBox="0 0 68 64" fill="none" xmlns="http://www.w3.org/2000/svg">
<path d="M0 35C0 20.6406 11.6406 9 26 9C40.3594 9 52 20.6406 52 35C52 49.3594 40.3594 61 26 61C11.6406 61 0 49.3594 0 35Z" fill="#49E29E"/>
<path d="M27.6559 45.9146C30.1108 45.9146 32.1009 43.9245 32.1009 41.4696C32.1009 39.0147 30.1108 37.0246 27.6559 37.0246C25.201 37.0246 23.2109 39.0147 23.2109 41.4696C23.2109 43.9245 25.201 45.9146 27.6559 45.9146Z" fill="#283E42"/>
<path d="M27.6568 46.5204C25.421 46.5204 23.3714 45.0216 22.7736 42.761C22.0625 40.0687 23.6733 37.2999 26.3644 36.5888C29.0483 35.8742 31.8243 37.4874 32.5365 40.1796C33.2476 42.8718 31.6368 45.6407 28.9457 46.3518C28.5153 46.465 28.0825 46.5204 27.6568 46.5204ZM27.6615 37.6265C27.3313 37.6265 27 37.6702 26.6733 37.7562C24.625 38.2975 23.3997 40.4048 23.941 42.452C24.4823 44.5004 26.5896 45.7244 28.6368 45.1843C29.6285 44.9225 30.4599 44.2893 30.9752 43.4025C31.4917 42.5157 31.6309 41.4803 31.3691 40.4886C31.1073 39.4968 30.474 38.6654 29.5872 38.1501C28.9929 37.8034 28.3313 37.6265 27.6615 37.6265Z" fill="black"/>
<path d="M53.4509 28.4947C56.3865 27.8557 58.0737 24.1553 57.2192 20.2298C56.3648 16.3043 53.2922 13.64 50.3565 14.279C47.4209 14.918 45.7337 18.6183 46.5882 22.5439C47.4426 26.4694 50.5152 29.1337 53.4509 28.4947Z" fill="#5AE4A7"/>
<path d="M52.5603 29.1937C51.2737 29.1937 49.9836 28.6772 48.8421 27.6866C47.4483 26.4779 46.4376 24.6972 45.9978 22.6725C45.5567 20.6477 45.7348 18.6076 46.5013 16.9284C47.2938 15.189 48.6169 14.038 50.2277 13.689C53.4895 12.9732 56.8846 15.8564 57.8091 20.1005C58.7325 24.3458 56.835 28.3753 53.5792 29.084C53.2419 29.1583 52.9011 29.1937 52.5603 29.1937ZM51.2419 14.7869C50.9895 14.7869 50.736 14.814 50.4848 14.8682C49.2549 15.1359 48.2301 16.0451 47.5992 17.4284C46.9412 18.8718 46.7914 20.643 47.177 22.4154C47.5626 24.1878 48.4353 25.7361 49.6334 26.7751C50.782 27.7715 52.0933 28.1713 53.3221 27.9048C55.927 27.3376 57.4117 23.9519 56.6299 20.3576C55.9223 17.11 53.6039 14.7869 51.2419 14.7869Z" fill="black"/>
<path d="M49.4906 7.99021L56.4355 34.2636C57.0804 36.7032 55.0846 39.0272 52.5758 38.7711L24.8539 35.838C24.3327 35.7854 23.894 35.4047 23.7582 34.8911L20.7714 23.5917C20.6356 23.0781 20.829 22.5303 21.256 22.227L43.9077 5.97868C45.9623 4.51638 48.8458 5.55058 49.4906 7.99021Z" fill="white"/>
<path d="M52.9432 39.3942C52.8005 39.3942 52.6578 39.3871 52.514 39.3718L24.7899 36.4378C24.0246 36.3623 23.3737 35.8022 23.1744 35.0451L20.1873 23.7456C19.988 22.9897 20.277 22.1819 20.9067 21.735L43.5564 5.48851C44.6838 4.68427 46.1319 4.48262 47.4385 4.9555C48.7357 5.42483 49.7215 6.50149 50.0741 7.83521L57.0187 34.1088C57.3713 35.4437 57.047 36.8671 56.1508 37.9166C55.3453 38.8588 54.1696 39.3942 52.9432 39.3942ZM45.9951 5.90833C45.3819 5.90833 44.7805 6.09818 44.2581 6.47083L21.6071 22.7173C21.3831 22.8765 21.2828 23.1654 21.3548 23.4366L24.3418 34.7362C24.4137 35.0086 24.6437 35.2102 24.9137 35.2373L52.639 38.1713C53.6295 38.2704 54.5812 37.8942 55.2321 37.1324C55.8807 36.3729 56.1071 35.3836 55.8512 34.4178L48.9067 8.14417C48.652 7.17837 47.9668 6.43073 47.0281 6.09111C46.6885 5.96847 46.3395 5.90833 45.9951 5.90833Z" fill="black"/>
<path d="M34.4651 54.3175C32.05 55.6821 29.6228 57.0224 27.2077 58.387C25.7949 59.1961 23.8145 58.3509 22.8968 56.4428C20.1798 50.7553 18.3927 44.6813 17.5474 38.4505L26.3624 36.1199C26.9541 41.3243 28.3307 46.4201 30.456 51.2142C30.6734 51.7094 31.2651 51.9266 31.7602 51.6973C32.1225 51.528 32.4968 51.3591 32.8591 51.19C33.7043 50.8037 34.6945 51.178 35.1292 51.9992C35.5519 52.8323 35.2741 53.8708 34.4651 54.3175Z" fill="white"/>
<path d="M26.0367 59.2963C25.7077 59.2963 25.3705 59.2444 25.0344 59.1407C23.907 58.7904 22.9294 57.9024 22.3528 56.7043C19.6299 51.005 17.8115 44.8918 16.9495 38.5322C16.9082 38.2303 17.0981 37.9449 17.3929 37.8671L26.2077 35.5357C26.3752 35.4921 26.558 35.5227 26.703 35.6206C26.8481 35.7197 26.9424 35.8765 26.9624 36.051C27.5497 41.222 28.9117 46.2409 31.0084 50.9685C31.0615 51.0888 31.1582 51.1407 31.2113 51.1607C31.3056 51.1961 31.4117 51.1925 31.5061 51.1501L32.6039 50.643C33.7266 50.1253 35.0721 50.6006 35.6629 51.7161C36.2384 52.8529 35.8304 54.2503 34.7596 54.8447C33.5521 55.5263 32.341 56.2032 31.1311 56.8789C29.9212 57.5557 28.7113 58.2315 27.5049 58.9131C27.0603 59.1678 26.558 59.2963 26.0367 59.2963ZM18.2195 38.8977C19.0933 44.9425 20.8492 50.755 23.4412 56.1819C23.8728 57.0782 24.5839 57.7362 25.3917 57.9874C25.7785 58.1076 26.3504 58.1831 26.9082 57.8635C28.1193 57.1784 29.3304 56.5015 30.5414 55.8258C31.7514 55.1489 32.9613 54.4732 34.1676 53.7916C34.17 53.7904 34.1723 53.7892 34.1723 53.7892C34.6841 53.5062 34.8716 52.8258 34.591 52.2716C34.3044 51.7291 33.6499 51.4897 33.1098 51.7397L32.0155 52.2444C31.6252 52.4272 31.1865 52.4437 30.7844 52.2892C30.3858 52.1395 30.0733 51.8435 29.9035 51.4555C27.8516 46.8305 26.4872 41.9296 25.8457 36.88L18.2195 38.8977Z" fill="black"/>
<path d="M15.7116 39.4164L11.5818 40.5153C10.7607 40.7326 9.91541 40.2376 9.69806 39.4043L6.47393 27.2202C6.26859 26.399 6.75164 25.5538 7.57276 25.3364L11.6905 24.2376C12.5117 24.0202 13.369 24.5274 13.5863 25.3485L16.8105 37.5327C17.0279 38.3658 16.5327 39.199 15.7116 39.4164Z" fill="white"/>
<path d="M11.1886 41.1713C10.8136 41.1713 10.4445 41.0711 10.1132 40.8777C9.61433 40.5864 9.25938 40.1171 9.11433 39.5569L5.89028 27.3741C5.60254 26.2232 6.28886 25.051 7.41858 24.7527L11.5353 23.6536C12.6792 23.3517 13.8655 24.0416 14.1698 25.1937L17.3938 37.3788C17.6933 38.5215 17.0082 39.6972 15.8679 40.0003L11.7382 41.0994C11.5566 41.1465 11.3714 41.1713 11.1886 41.1713ZM12.0754 24.7916C11.9988 24.7916 11.9221 24.801 11.8455 24.8211L7.72872 25.9201C7.23344 26.051 6.93391 26.5675 7.06009 27.0734L10.2818 39.2503C10.3466 39.5003 10.5035 39.7067 10.7216 39.8352C10.9363 39.959 11.1886 39.9956 11.428 39.9319L15.5566 38.8329C16.0648 38.6984 16.3596 38.1949 16.2264 37.6866L13.0023 25.5027C12.8903 25.0793 12.494 24.7916 12.0754 24.7916Z" fill="black"/>
<path d="M28.7536 38.7161L17.2699 41.7592C15.6517 42.1816 13.9732 41.2036 13.5385 39.5855L9.56573 24.5516C9.14305 22.9334 10.1212 21.2549 11.7393 20.8323L23.2231 17.8013C24.8412 17.3666 26.5197 18.3447 26.9423 19.9629L30.9152 34.9968C31.3499 36.615 30.3717 38.2934 28.7536 38.7161Z" fill="#5AE4A7"/>
<path d="M16.5048 42.4614C14.8845 42.4614 13.3939 41.3765 12.9552 39.7421L8.98118 24.7067C8.47293 22.755 9.64156 20.7562 11.5873 20.2491L23.0684 17.2173C24.0036 16.9673 24.9847 17.0982 25.8326 17.5899C26.6793 18.0817 27.2807 18.8694 27.526 19.8093L31.4989 34.8423C31.75 35.7786 31.618 36.7609 31.1262 37.6064C30.6357 38.452 29.8479 39.0534 28.9081 39.2998L17.4246 42.3435C17.118 42.4237 16.809 42.4614 16.5048 42.4614ZM24.0048 18.301C23.796 18.301 23.5861 18.3281 23.3798 18.3847L11.8939 21.4166C10.5909 21.7562 9.80901 23.0946 10.1486 24.4001L14.1215 39.4307C14.4717 40.7303 15.8054 41.5121 17.118 41.176L28.5991 38.1324C29.2265 37.9685 29.7536 37.5663 30.0826 37.0003C30.4116 36.4343 30.5 35.7786 30.3314 35.1536L26.3585 20.1171C26.1946 19.4885 25.7925 18.9626 25.2265 18.6336C24.8479 18.4142 24.4281 18.301 24.0048 18.301Z" fill="black"/>
<path d="M13.9505 25.7326C13.6828 25.7326 13.4387 25.5534 13.3668 25.2833C13.2818 24.9602 13.4741 24.63 13.796 24.5451L23.2689 22.0416C23.5943 21.9531 23.921 22.1501 24.0071 22.4708C24.092 22.7939 23.8998 23.1241 23.5778 23.209L14.105 25.7126C14.0531 25.7267 14.0012 25.7326 13.9505 25.7326ZM14.9894 29.6654C14.7217 29.6654 14.4776 29.4862 14.4057 29.2161C14.3208 28.8942 14.513 28.5628 14.8349 28.4779L24.3078 25.9732C24.6344 25.8847 24.9611 26.0805 25.046 26.4024C25.1309 26.7244 24.9387 27.0557 24.6168 27.1406L15.1439 29.6454C15.092 29.6595 15.0401 29.6654 14.9894 29.6654ZM16.0295 33.597C15.7618 33.597 15.5177 33.4178 15.4458 33.1477C15.3609 32.8258 15.5531 32.4944 15.875 32.4095L25.3467 29.9048C25.671 29.8164 25.9988 30.0121 26.0849 30.334C26.1698 30.656 25.9776 30.9873 25.6557 31.0722L16.184 33.577C16.1321 33.5911 16.0802 33.597 16.0295 33.597ZM17.0684 37.5286C16.8007 37.5286 16.5566 37.3494 16.4847 37.0793C16.3998 36.7562 16.592 36.426 16.9139 36.3411L26.3868 33.8376C26.7111 33.748 27.0389 33.9461 27.125 34.2668C27.2099 34.5899 27.0177 34.9201 26.6958 35.005L17.2229 37.5086C17.171 37.5227 17.1191 37.5286 17.0684 37.5286Z" fill="black"/>
<path d="M58.7776 18.9201C58.53 18.9201 58.2977 18.7668 58.2092 18.5204C58.0972 18.2067 58.2599 17.8612 58.5736 17.748L63.7811 15.8765C64.096 15.768 64.4403 15.9284 64.5536 16.2409C64.6656 16.5546 64.5028 16.9001 64.1892 17.0133L58.9816 18.8848C58.9144 18.9084 58.8448 18.9201 58.7776 18.9201Z" fill="black"/>
<path d="M57.9443 16.34C57.7804 16.34 57.6177 16.2739 57.4974 16.143C57.2733 15.8966 57.291 15.5145 57.5375 15.2893L61.8264 11.3824C62.074 11.1595 62.4538 11.1761 62.6802 11.4225C62.9042 11.669 62.8865 12.0511 62.6401 12.2763L58.3512 16.1831C58.2356 16.2881 58.0894 16.34 57.9443 16.34Z" fill="black"/>
<path d="M65.5718 21.7256C65.5624 21.7256 65.5517 21.7256 65.5423 21.7244L59.7487 21.4402C59.4149 21.4249 59.1591 21.1407 59.1756 20.8081C59.1909 20.4756 59.4716 20.1949 59.8076 20.235L65.6013 20.5192C65.935 20.5346 66.1909 20.8188 66.1744 21.1513C66.1591 21.4744 65.8925 21.7256 65.5718 21.7256Z" fill="black"/>
</svg>
