<svg width="127" height="96" viewBox="0 0 127 96" fill="none" xmlns="http://www.w3.org/2000/svg">
<path d="M64.9187 51.1441L24.2424 18.5854V73.9361H105.507V18.5854L64.9187 51.1441Z" fill="#3B88D4"/>
<path d="M24.2424 18.5854V73.9361L58.8178 46.2608L24.2424 18.5854ZM105.507 18.5854V73.9361L70.932 46.2608L105.507 18.5854Z" fill="#03509C"/>
<path d="M24.2424 18.5854L29.1492 22.85L62.5032 51.8388C63.8805 52.8352 65.8329 52.8352 67.2103 51.8388L100.596 22.85L105.507 18.5854H24.2424Z" fill="#02386E"/>
<path d="M13.5484 9.73784H14.9475C15.043 9.73785 15.1345 9.77596 15.202 9.84378C15.2695 9.9116 15.3074 10.0036 15.3075 10.0995C15.3075 10.1954 15.2695 10.2874 15.202 10.3552C15.1345 10.4231 15.043 10.4612 14.9475 10.4612H13.5484C13.4529 10.4612 13.3614 10.4231 13.2939 10.3552C13.2264 10.2874 13.1884 10.1954 13.1884 10.0995C13.1884 10.0036 13.2264 9.91156 13.2939 9.84373C13.3614 9.77591 13.4529 9.73784 13.5484 9.73784ZM18.7732 10.0934C18.774 10.1414 18.7653 10.1891 18.7476 10.2337C18.7299 10.2782 18.7035 10.3188 18.67 10.3531C18.6365 10.3873 18.5965 10.4145 18.5525 10.4331C18.5084 10.4516 18.4611 10.4612 18.4133 10.4612H17.0142C16.9188 10.4612 16.8272 10.4231 16.7597 10.3552C16.6922 10.2874 16.6543 10.1954 16.6543 10.0995C16.6543 10.0036 16.6922 9.91158 16.7597 9.84376C16.8272 9.77594 16.9188 9.73784 17.0142 9.73784H18.4046C18.5001 9.737 18.5921 9.77371 18.661 9.84014C18.7298 9.90657 18.7701 9.99748 18.7732 10.0934ZM16.3409 7.6554V9.06104C16.3409 9.15698 16.3029 9.24899 16.2354 9.31683C16.1679 9.38467 16.0764 9.42278 15.9809 9.42278C15.9336 9.42278 15.8868 9.41343 15.8431 9.39525C15.7994 9.37708 15.7597 9.35044 15.7263 9.31685C15.6929 9.28326 15.6663 9.24337 15.6482 9.19948C15.6301 9.15559 15.6208 9.10855 15.6208 9.06104V7.6554C15.6208 7.55946 15.6588 7.46744 15.7263 7.3996C15.7938 7.33176 15.8854 7.29365 15.9809 7.29365C16.0763 7.29365 16.1679 7.33176 16.2354 7.3996C16.3029 7.46744 16.3409 7.55946 16.3409 7.6554ZM15.9809 10.7762C16.0764 10.7762 16.1679 10.8143 16.2354 10.8821C16.3029 10.95 16.3409 11.042 16.3409 11.1379V12.5437C16.3409 12.6396 16.3029 12.7317 16.2354 12.7995C16.1679 12.8673 16.0763 12.9055 15.9809 12.9055C15.8854 12.9055 15.7938 12.8673 15.7263 12.7995C15.6588 12.7317 15.6208 12.6396 15.6208 12.5437V11.1379C15.6208 11.0904 15.6301 11.0434 15.6482 10.9995C15.6663 10.9556 15.6929 10.9157 15.7263 10.8821C15.7597 10.8485 15.7994 10.8219 15.8431 10.8037C15.8868 10.7855 15.9336 10.7762 15.9809 10.7762ZM32.2453 88.1399H33.2975C33.3693 88.1399 33.4382 88.1686 33.4889 88.2196C33.5397 88.2706 33.5682 88.3398 33.5682 88.412C33.5682 88.4841 33.5397 88.5533 33.4889 88.6043C33.4381 88.6553 33.3693 88.684 33.2975 88.684H32.2453C32.174 88.6831 32.1061 88.654 32.056 88.6031C32.006 88.5522 31.9779 88.4835 31.9779 88.4119C31.9779 88.3404 32.006 88.2717 32.056 88.2208C32.1061 88.1699 32.174 88.1408 32.2453 88.1399ZM36.1748 88.4074C36.1754 88.4435 36.1688 88.4793 36.1555 88.5129C36.1422 88.5464 36.1223 88.5769 36.0971 88.6027C36.0719 88.6284 36.0419 88.6489 36.0088 88.6628C35.9756 88.6768 35.94 88.684 35.9041 88.684H34.8519C34.7801 88.684 34.7112 88.6553 34.6604 88.6043C34.6097 88.5533 34.5811 88.4841 34.5811 88.412C34.5811 88.3398 34.6096 88.2706 34.6604 88.2196C34.7112 88.1686 34.7801 88.1399 34.8519 88.1399H35.8975C35.9693 88.1393 36.0385 88.167 36.0903 88.2169C36.1421 88.2669 36.1724 88.3352 36.1748 88.4074ZM34.3454 86.5738V87.631C34.3454 87.6667 34.3384 87.7021 34.3248 87.7351C34.3112 87.7681 34.2913 87.7981 34.2661 87.8234C34.241 87.8486 34.2111 87.8687 34.1783 87.8823C34.1454 87.896 34.1102 87.903 34.0747 87.903C34.0391 87.903 34.0039 87.896 33.9711 87.8823C33.9382 87.8687 33.9084 87.8486 33.8832 87.8234C33.8581 87.7981 33.8381 87.7681 33.8245 87.7351C33.8109 87.7021 33.8039 87.6667 33.8039 87.631V86.5738C33.8039 86.5016 33.8324 86.4324 33.8832 86.3814C33.934 86.3304 34.0029 86.3017 34.0747 86.3017C34.1465 86.3017 34.2154 86.3304 34.2661 86.3814C34.3169 86.4324 34.3454 86.5016 34.3454 86.5738ZM34.0747 88.9209C34.1465 88.9209 34.2154 88.9496 34.2661 89.0006C34.3169 89.0516 34.3454 89.1208 34.3454 89.193V90.2502C34.3454 90.3224 34.3169 90.3916 34.2661 90.4426C34.2154 90.4936 34.1465 90.5223 34.0747 90.5223C34.0029 90.5223 33.934 90.4936 33.8832 90.4426C33.8324 90.3916 33.8039 90.3224 33.8039 90.2502V89.193C33.8039 89.1208 33.8324 89.0516 33.8832 89.0006C33.934 88.9496 34.0029 88.9209 34.0747 88.9209ZM1.51549 58.0138C1.21575 58.0138 0.922745 58.1031 0.673524 58.2705C0.424303 58.4378 0.230058 58.6756 0.115356 58.9539C0.000654481 59.2321 -0.0293554 59.5383 0.029123 59.8337C0.0876014 60.1291 0.231944 60.4004 0.443892 60.6134C0.65584 60.8264 0.925874 60.9714 1.21985 61.0302C1.51383 61.0889 1.81855 61.0588 2.09548 60.9435C2.3724 60.8283 2.6091 60.6331 2.77563 60.3827C2.94216 60.1323 3.03105 59.8378 3.03106 59.5367C3.03106 59.1328 2.87139 58.7454 2.58716 58.4598C2.30294 58.1742 1.91744 58.0138 1.51549 58.0138ZM1.51549 60.3826C1.34896 60.3826 1.18617 60.333 1.04771 60.2401C0.909247 60.1471 0.801329 60.015 0.737603 59.8604C0.673877 59.7058 0.657206 59.5357 0.689697 59.3716C0.722188 59.2074 0.802379 59.0567 0.920135 58.9384C1.03789 58.8201 1.18792 58.7395 1.35125 58.7068C1.51458 58.6742 1.68388 58.691 1.83773 58.755C1.99158 58.819 2.12307 58.9275 2.21558 59.0666C2.3081 59.2058 2.35747 59.3693 2.35746 59.5367C2.35745 59.761 2.26874 59.9762 2.11084 60.1349C1.95294 60.2935 1.73879 60.3826 1.51549 60.3826ZM91.4739 90.6098H92.7189C92.8039 90.6098 92.8853 90.6437 92.9454 90.7041C93.0055 90.7644 93.0392 90.8463 93.0392 90.9317C93.0392 91.017 93.0055 91.0989 92.9454 91.1592C92.8853 91.2196 92.8039 91.2535 92.7189 91.2535H91.4739C91.3889 91.2535 91.3075 91.2196 91.2474 91.1592C91.1873 91.0989 91.1536 91.017 91.1536 90.9316C91.1536 90.8463 91.1873 90.7644 91.2474 90.704C91.3075 90.6437 91.3889 90.6098 91.4739 90.6098ZM96.1233 90.9262C96.124 90.9689 96.1163 91.0113 96.1005 91.051C96.0847 91.0907 96.0612 91.1268 96.0314 91.1573C96.0016 91.1877 95.9661 91.2119 95.9269 91.2285C95.8877 91.245 95.8456 91.2535 95.803 91.2535H94.558C94.5159 91.2535 94.4743 91.2451 94.4354 91.229C94.3966 91.2128 94.3613 91.1891 94.3315 91.1592C94.3018 91.1293 94.2782 91.0939 94.2621 91.0548C94.246 91.0158 94.2377 90.9739 94.2377 90.9317C94.2377 90.8463 94.2714 90.7644 94.3315 90.7041C94.3916 90.6437 94.473 90.6098 94.558 90.6098H95.7952C95.8802 90.609 95.9621 90.6417 96.0234 90.7009C96.0847 90.76 96.1206 90.8408 96.1233 90.9262ZM93.9588 88.7567V90.0076C93.9588 90.0929 93.9251 90.1748 93.865 90.2352C93.8049 90.2955 93.7234 90.3295 93.6385 90.3295C93.5535 90.3295 93.472 90.2955 93.4119 90.2352C93.3519 90.1748 93.3181 90.0929 93.3181 90.0076V88.7567C93.3181 88.6713 93.3519 88.5895 93.4119 88.5291C93.472 88.4687 93.5535 88.4348 93.6385 88.4348C93.7234 88.4348 93.8049 88.4687 93.865 88.5291C93.9251 88.5895 93.9588 88.6713 93.9588 88.7567ZM93.6384 91.5338C93.7234 91.5338 93.8049 91.5677 93.865 91.6281C93.925 91.6885 93.9588 91.7704 93.9588 91.8557V93.1067C93.9588 93.192 93.925 93.2739 93.865 93.3343C93.8049 93.3946 93.7234 93.4286 93.6384 93.4286C93.5535 93.4286 93.472 93.3946 93.4119 93.3343C93.3518 93.2739 93.3181 93.192 93.3181 93.1067V91.8557C93.3181 91.8134 93.3264 91.7716 93.3425 91.7325C93.3586 91.6935 93.3822 91.658 93.4119 91.6281C93.4417 91.5982 93.477 91.5745 93.5159 91.5583C93.5547 91.5422 93.5964 91.5338 93.6384 91.5338ZM119.863 45.9553C119.563 45.9553 119.27 46.0447 119.021 46.212C118.772 46.3793 118.578 46.6172 118.463 46.8954C118.348 47.1737 118.318 47.4799 118.377 47.7753C118.435 48.0707 118.58 48.342 118.791 48.555C119.003 48.7679 119.273 48.913 119.567 48.9717C119.861 49.0305 120.166 49.0003 120.443 48.885C120.72 48.7698 120.957 48.5746 121.123 48.3242C121.29 48.0738 121.379 47.7793 121.379 47.4781C121.379 47.2782 121.339 47.0801 121.263 46.8954C121.187 46.7106 121.075 46.5427 120.935 46.4013C120.794 46.2599 120.627 46.1478 120.443 46.0712C120.259 45.9947 120.062 45.9553 119.863 45.9553ZM119.863 48.3242C119.697 48.3242 119.534 48.2746 119.395 48.1816C119.257 48.0886 119.149 47.9565 119.085 47.8019C119.021 47.6473 119.005 47.4772 119.037 47.3131C119.07 47.149 119.15 46.9982 119.268 46.8799C119.385 46.7616 119.535 46.681 119.699 46.6484C119.862 46.6157 120.031 46.6325 120.185 46.6965C120.339 46.7606 120.471 46.869 120.563 47.0081C120.656 47.1473 120.705 47.3108 120.705 47.4781C120.705 47.5893 120.683 47.6993 120.641 47.8019C120.599 47.9046 120.537 47.9978 120.458 48.0764C120.38 48.1549 120.287 48.2173 120.185 48.2598C120.083 48.3023 119.974 48.3242 119.863 48.3242ZM110.433 2.17501H111.678C111.763 2.17501 111.845 2.20892 111.905 2.26927C111.965 2.32962 111.999 2.41148 111.999 2.49683C111.999 2.58218 111.965 2.66404 111.905 2.72439C111.845 2.78474 111.763 2.81865 111.678 2.81865H110.433C110.348 2.81865 110.267 2.78474 110.207 2.72439C110.147 2.66404 110.113 2.58218 110.113 2.49683C110.113 2.41148 110.147 2.32962 110.207 2.26927C110.267 2.20892 110.348 2.17501 110.433 2.17501ZM115.083 2.4914C115.083 2.53411 115.076 2.57654 115.06 2.61621C115.044 2.65588 115.021 2.692 114.991 2.72246C114.961 2.75292 114.926 2.77712 114.886 2.79363C114.847 2.81014 114.805 2.81865 114.762 2.81865H113.517C113.475 2.81866 113.434 2.81034 113.395 2.79417C113.356 2.77799 113.321 2.75429 113.291 2.72441C113.261 2.69452 113.238 2.65904 113.222 2.62C113.205 2.58095 113.197 2.5391 113.197 2.49683C113.197 2.45457 113.205 2.41271 113.222 2.37367C113.238 2.33462 113.261 2.29914 113.291 2.26925C113.321 2.23937 113.356 2.21567 113.395 2.1995C113.434 2.18333 113.475 2.175 113.517 2.17501H114.755C114.84 2.17426 114.922 2.20694 114.983 2.26607C115.044 2.32519 115.08 2.40606 115.083 2.4914ZM112.918 0.321904V1.57274C112.918 1.65811 112.885 1.73999 112.824 1.80036C112.764 1.86073 112.683 1.89464 112.598 1.89464C112.513 1.89464 112.431 1.86073 112.371 1.80036C112.311 1.73999 112.278 1.65811 112.278 1.57274V0.321904C112.278 0.236529 112.311 0.154651 112.371 0.0942821C112.431 0.0339131 112.513 0 112.598 0C112.683 0 112.764 0.0339131 112.824 0.0942821C112.885 0.154651 112.918 0.236529 112.918 0.321904ZM112.598 3.09902C112.683 3.09902 112.764 3.13293 112.824 3.1933C112.885 3.25367 112.918 3.33555 112.918 3.42092V4.67189C112.918 4.75726 112.885 4.83914 112.824 4.8995C112.764 4.95987 112.683 4.99379 112.598 4.99379C112.513 4.99379 112.431 4.95987 112.371 4.8995C112.311 4.83914 112.278 4.75726 112.278 4.67189V3.42092C112.278 3.33555 112.311 3.25367 112.371 3.1933C112.431 3.13293 112.513 3.09902 112.598 3.09902ZM30.0075 3.35068C29.7078 3.35069 29.4148 3.44001 29.1655 3.60734C28.9163 3.77467 28.7221 4.0125 28.6074 4.29076C28.4927 4.56902 28.4627 4.8752 28.5211 5.1706C28.5796 5.46599 28.724 5.73732 28.9359 5.95029C29.1479 6.16326 29.4179 6.30829 29.7119 6.36705C30.0059 6.42581 30.3106 6.39566 30.5875 6.2804C30.8644 6.16515 31.1011 5.96997 31.2676 5.71955C31.4342 5.46913 31.5231 5.17472 31.5231 4.87354C31.5231 4.67355 31.4839 4.47552 31.4077 4.29076C31.3316 4.106 31.2199 3.93812 31.0792 3.7967C30.9385 3.65529 30.7714 3.54312 30.5875 3.46659C30.4036 3.39006 30.2065 3.35067 30.0075 3.35068ZM30.0075 5.71952C29.841 5.71952 29.6782 5.6699 29.5397 5.57694C29.4013 5.48398 29.2933 5.35184 29.2296 5.19725C29.1659 5.04266 29.1492 4.87256 29.1817 4.70844C29.2142 4.54433 29.2944 4.39359 29.4121 4.27527C29.5299 4.15695 29.6799 4.07637 29.8432 4.04373C30.0066 4.01109 30.1759 4.02784 30.3297 4.09187C30.4836 4.15591 30.6151 4.26434 30.7076 4.40347C30.8001 4.5426 30.8495 4.70617 30.8495 4.87349C30.8495 5.09787 30.7608 5.31306 30.6029 5.47172C30.445 5.63038 30.2308 5.71952 30.0075 5.71952ZM5.58904 50.9531H6.44166C6.47047 50.9531 6.499 50.9588 6.52561 50.9699C6.55222 50.981 6.5764 50.9972 6.59677 51.0177C6.61714 51.0381 6.63329 51.0624 6.64431 51.0892C6.65533 51.1159 6.66101 51.1446 6.661 51.1735C6.661 51.232 6.63789 51.2881 6.59676 51.3294C6.55562 51.3707 6.49984 51.3939 6.44166 51.3939H5.58904C5.53087 51.3939 5.47508 51.3707 5.43395 51.3294C5.39281 51.2881 5.3697 51.232 5.3697 51.1735C5.3697 51.1151 5.39281 51.059 5.43395 51.0177C5.47508 50.9764 5.53087 50.9531 5.58904 50.9531ZM8.77307 51.1698C8.77357 51.1991 8.76826 51.2281 8.75746 51.2553C8.74666 51.2825 8.73058 51.3072 8.71017 51.3281C8.68975 51.349 8.6654 51.3655 8.63854 51.3769C8.61168 51.3882 8.58285 51.394 8.55373 51.394H7.70111C7.6723 51.394 7.64378 51.3883 7.61716 51.3772C7.59055 51.3661 7.56637 51.3499 7.546 51.3294C7.52563 51.3089 7.50948 51.2846 7.49846 51.2579C7.48744 51.2312 7.48177 51.2025 7.48177 51.1735C7.48177 51.1446 7.48745 51.1159 7.49847 51.0892C7.50949 51.0625 7.52565 51.0382 7.54602 51.0177C7.56638 50.9972 7.59056 50.981 7.61717 50.9699C7.64378 50.9589 7.67231 50.9531 7.70111 50.9531H8.54845C8.60663 50.9526 8.6627 50.975 8.70467 51.0155C8.74664 51.056 8.77119 51.1114 8.77307 51.1698ZM7.29079 49.6841V50.5407C7.29079 50.5696 7.28512 50.5983 7.2741 50.625C7.26308 50.6518 7.24692 50.6761 7.22655 50.6966C7.20618 50.7171 7.18199 50.7333 7.15537 50.7444C7.12875 50.7555 7.10022 50.7612 7.07141 50.7612C7.04259 50.7612 7.01406 50.7555 6.98743 50.7444C6.96081 50.7333 6.93662 50.7171 6.91624 50.6966C6.89586 50.6761 6.8797 50.6518 6.86868 50.6251C6.85765 50.5983 6.85198 50.5696 6.85198 50.5407V49.6841C6.85198 49.6256 6.8751 49.5695 6.91624 49.5282C6.95739 49.4869 7.01319 49.4636 7.07138 49.4636C7.12957 49.4636 7.18538 49.4869 7.22653 49.5282C7.26767 49.5695 7.29079 49.6256 7.29079 49.6841ZM7.07141 51.5859C7.12959 51.5859 7.18539 51.6091 7.22653 51.6505C7.26768 51.6918 7.29079 51.7479 7.29079 51.8064V52.6631C7.29079 52.7215 7.26767 52.7776 7.22653 52.819C7.18538 52.8603 7.12957 52.8835 7.07138 52.8835C7.01319 52.8835 6.95739 52.8603 6.91624 52.819C6.8751 52.7776 6.85198 52.7215 6.85198 52.6631V51.8064C6.85198 51.7774 6.85765 51.7488 6.86868 51.722C6.8797 51.6953 6.89586 51.671 6.91624 51.6505C6.93662 51.63 6.96081 51.6138 6.98743 51.6027C7.01406 51.5916 7.04259 51.5859 7.07141 51.5859ZM122.08 52.5324H123.133C123.204 52.5324 123.273 52.561 123.324 52.6121C123.375 52.6631 123.403 52.7323 123.403 52.8045C123.403 52.8766 123.375 52.9458 123.324 52.9968C123.273 53.0479 123.204 53.0765 123.133 53.0765H122.08C122.008 53.0765 121.94 53.0479 121.889 52.9968C121.838 52.9458 121.809 52.8766 121.809 52.8045C121.809 52.7323 121.838 52.6631 121.889 52.6121C121.94 52.561 122.008 52.5324 122.08 52.5324ZM126.01 52.7998C126.011 52.836 126.004 52.8718 125.991 52.9054C125.978 52.9389 125.958 52.9694 125.933 52.9952C125.908 53.0209 125.877 53.0414 125.844 53.0553C125.811 53.0693 125.776 53.0765 125.74 53.0765H124.687C124.615 53.0765 124.547 53.0478 124.496 52.9968C124.445 52.9458 124.416 52.8766 124.416 52.8044C124.416 52.7323 124.445 52.6631 124.496 52.6121C124.547 52.561 124.615 52.5324 124.687 52.5324H125.733C125.805 52.5318 125.874 52.5594 125.926 52.6094C125.978 52.6594 126.008 52.7277 126.01 52.7998H126.01ZM124.181 50.966V52.0233C124.181 52.0591 124.174 52.0944 124.16 52.1275C124.147 52.1605 124.127 52.1905 124.101 52.2157C124.076 52.241 124.046 52.261 124.014 52.2747C123.981 52.2884 123.945 52.2954 123.91 52.2954C123.874 52.2954 123.839 52.2884 123.806 52.2747C123.773 52.261 123.744 52.241 123.718 52.2157C123.693 52.1905 123.673 52.1605 123.66 52.1275C123.646 52.0944 123.639 52.0591 123.639 52.0233V50.966C123.639 50.8938 123.668 50.8246 123.718 50.7736C123.769 50.7225 123.838 50.6939 123.91 50.6939C123.982 50.6939 124.051 50.7225 124.101 50.7736C124.152 50.8246 124.181 50.8938 124.181 50.966ZM123.91 53.3135C123.982 53.3135 124.051 53.3421 124.101 53.3932C124.152 53.4442 124.181 53.5134 124.181 53.5855V54.643C124.181 54.7152 124.152 54.7844 124.101 54.8354C124.051 54.8864 123.982 54.9151 123.91 54.9151C123.838 54.9151 123.769 54.8864 123.718 54.8354C123.668 54.7844 123.639 54.7152 123.639 54.643V53.5855C123.639 53.5134 123.668 53.4442 123.718 53.3932C123.769 53.3421 123.838 53.3135 123.91 53.3135ZM85.1643 93.6311C84.9311 93.6311 84.7032 93.7006 84.5094 93.8307C84.3155 93.9609 84.1645 94.1459 84.0752 94.3623C83.986 94.5787 83.9627 94.8169 84.0082 95.0467C84.0536 95.2764 84.1659 95.4875 84.3308 95.6531C84.4956 95.8188 84.7057 95.9315 84.9343 95.9772C85.163 96.0229 85.4 95.9995 85.6154 95.9098C85.8308 95.8202 86.0149 95.6684 86.1444 95.4736C86.2739 95.2788 86.3431 95.0498 86.3431 94.8155C86.3431 94.66 86.3126 94.506 86.2533 94.3622C86.1941 94.2185 86.1073 94.088 85.9978 93.978C85.8884 93.868 85.7584 93.7808 85.6154 93.7212C85.4724 93.6617 85.3191 93.6311 85.1643 93.6311ZM85.1643 95.4736C85.0348 95.4736 84.9082 95.435 84.8005 95.3627C84.6928 95.2904 84.6088 95.1876 84.5593 95.0674C84.5097 94.9471 84.4967 94.8149 84.522 94.6872C84.5473 94.5596 84.6096 94.4423 84.7012 94.3503C84.7928 94.2583 84.9095 94.1956 85.0365 94.1702C85.1635 94.1448 85.2952 94.1578 85.4149 94.2076C85.5345 94.2574 85.6368 94.3418 85.7088 94.45C85.7807 94.5582 85.8191 94.6854 85.8192 94.8155C85.8192 94.99 85.7502 95.1574 85.6273 95.2808C85.5045 95.4042 85.338 95.4736 85.1643 95.4736Z" fill="#02386E"/>
</svg>
