<svg width="21" height="18" viewBox="0 0 21 18" fill="none" xmlns="http://www.w3.org/2000/svg">
<path fill-rule="evenodd" clip-rule="evenodd" d="M1.90537 1.96538C2.80551 1.06552 4.02619 0.560008 5.29897 0.560008C6.57176 0.560008 7.79244 1.06552 8.69257 1.96538L10.099 3.37058L11.5054 1.96538C11.9482 1.50693 12.4778 1.14126 13.0634 0.889696C13.649 0.638133 14.2789 0.50572 14.9162 0.500181C15.5536 0.494643 16.1856 0.616091 16.7756 0.857439C17.3655 1.09879 17.9014 1.4552 18.3521 1.90589C18.8028 2.35657 19.1592 2.8925 19.4005 3.4824C19.6419 4.07231 19.7633 4.70437 19.7578 5.34171C19.7522 5.97905 19.6198 6.60891 19.3683 7.19452C19.1167 7.78014 18.751 8.3098 18.2926 8.75258L10.099 16.9474L1.90537 8.75258C1.00551 7.85245 0.5 6.63177 0.5 5.35898C0.5 4.0862 1.00551 2.86552 1.90537 1.96538V1.96538Z" stroke="#171818" stroke-linejoin="round"/>
</svg>
