<svg width="16" height="16" viewBox="0 0 16 16" fill="none" xmlns="http://www.w3.org/2000/svg">
<path d="M4.33301 9V15.332C4.33301 15.5983 4.62967 15.757 4.85134 15.6093L7.62667 13.759C7.85034 13.61 8.14201 13.6097 8.36567 13.7587L11.1483 15.61C11.37 15.7573 11.6663 15.5987 11.6663 15.3323V8.99966L4.33301 9Z" fill="#FF8098"/>
<path d="M4.33301 11.1577C5.36834 11.895 6.63167 12.3333 7.99967 12.3333C9.36767 12.3333 10.631 11.8953 11.6663 11.1577V9H4.33301V11.1577Z" fill="#FF5E7E"/>
<path d="M5.66634 9V15.0667L4.84967 15.61C4.62967 15.7567 4.33301 15.5967 4.33301 15.3333V9H5.66634ZM10.333 9V15.0667L11.1497 15.61C11.3697 15.7567 11.6663 15.6 11.6663 15.3333V9H10.333ZM6.33301 9V14.6233L7.62634 13.76C7.84967 13.61 8.14301 13.61 8.36634 13.76L9.66634 14.6233V9H6.33301Z" fill="#FF3B65"/>
<path opacity="0.75" d="M4.33301 11.1577V9H5.66634V11.884C5.19067 11.695 4.74401 11.4503 4.33301 11.1577ZM10.333 11.884C10.8087 11.695 11.2553 11.4507 11.6663 11.158V9.00033H10.333V11.884ZM9.66634 12.1043V9H6.33301V12.1043C6.86501 12.2493 7.42201 12.3333 7.99967 12.3333C8.57734 12.3333 9.13434 12.2493 9.66634 12.1043Z" fill="#D82B50"/>
<path d="M7.99967 11.6667C11.1293 11.6667 13.6663 9.12962 13.6663 6.00001C13.6663 2.8704 11.1293 0.333344 7.99967 0.333344C4.87006 0.333344 2.33301 2.8704 2.33301 6.00001C2.33301 9.12962 4.87006 11.6667 7.99967 11.6667Z" fill="#FFC343"/>
<path d="M8.00033 10.3333C10.3936 10.3333 12.3337 8.39322 12.3337 5.99999C12.3337 3.60676 10.3936 1.66666 8.00033 1.66666C5.60709 1.66666 3.66699 3.60676 3.66699 5.99999C3.66699 8.39322 5.60709 10.3333 8.00033 10.3333Z" fill="#FF8200"/>
<path d="M11.6403 3.65332C10.867 2.74332 9.70699 2.16666 8.41699 2.16666C6.07033 2.16666 4.16699 4.06999 4.16699 6.41666C4.16699 7.70666 4.74366 8.86666 5.65366 9.63999C4.45699 8.87332 3.66699 7.52666 3.66699 5.99999C3.66699 3.60666 5.60699 1.66666 8.00033 1.66666C9.52699 1.66666 10.8737 2.45666 11.6403 3.65332Z" fill="#FF6500"/>
<path d="M7.84524 7.93767L6.6499 8.56601C6.40524 8.69467 6.11957 8.48701 6.16624 8.21467L6.39457 6.88367C6.41324 6.77567 6.37724 6.66534 6.29857 6.58867L5.33157 5.64601C5.13357 5.45301 5.2429 5.11701 5.51624 5.07734L6.8529 4.88301C6.96157 4.86734 7.05524 4.79901 7.1039 4.70067L7.70157 3.48967C7.8239 3.24201 8.17724 3.24201 8.29924 3.48967L8.8969 4.70067C8.94557 4.79901 9.03924 4.86734 9.1479 4.88301L10.4846 5.07734C10.7579 5.11701 10.8672 5.45301 10.6692 5.64601L9.70224 6.58867C9.62357 6.66534 9.5879 6.77567 9.60624 6.88367L9.83457 8.21467C9.88124 8.48701 9.59557 8.69467 9.3509 8.56601L8.15557 7.93767C8.05857 7.88667 7.94257 7.88667 7.84524 7.93767Z" fill="#FFC343"/>
</svg>
