<svg width="47" height="41" viewBox="0 0 47 41" fill="none" xmlns="http://www.w3.org/2000/svg">
<g clip-path="url(#clip0_8651_2874)">
<path d="M45.8344 35.1007C31.1612 18.0872 14.7528 51.0483 0.0795898 34.0346C0.358613 26.0002 0.63748 17.9659 0.916503 9.93154C15.5897 26.9451 31.9981 -6.01602 46.6713 10.9977C46.3923 19.0319 46.1133 27.0663 45.8344 35.1007Z" fill="#002325"/>
<path d="M45.9589 32.9613C31.2857 15.9478 14.8773 48.9089 0.204102 31.8952C0.483125 23.8608 0.761992 15.8265 1.04101 7.79214C15.7143 24.8057 32.1226 -8.15543 46.7958 8.85827C46.5168 16.8927 46.2379 24.9269 45.9589 32.9613Z" fill="#009A42" stroke="#002325" stroke-width="0.5" stroke-miterlimit="10" stroke-linecap="round" stroke-linejoin="round"/>
<path d="M46.7961 8.85832C46.517 16.8926 46.2378 24.9275 45.9594 32.9615C42.9992 29.5298 39.9688 28.131 36.8958 27.9464C30.4826 27.5588 23.886 32.4574 17.3649 35.1797C13.5244 36.7837 9.71001 37.6329 5.97445 36.2032C4.02708 35.459 2.10149 34.0949 0.204102 31.8952C0.483282 23.861 0.762462 15.8261 1.04086 7.79203C3.73584 10.9168 6.48941 12.3558 9.27964 12.7285C11.3821 13.009 13.5049 12.684 15.6402 12.0192C24.3966 9.29105 33.3523 0.834212 41.8721 4.91381C43.5312 5.70818 45.1742 6.9782 46.7961 8.85832Z" fill="#009A42" stroke="#002325" stroke-width="0.5" stroke-miterlimit="10" stroke-linecap="round" stroke-linejoin="round"/>
<g style="mix-blend-mode:overlay">
<path d="M15.6398 12.0193L17.3646 35.1796C13.524 36.7836 9.70968 37.6328 5.97412 36.2031L9.27932 12.7286C11.3818 13.0091 13.5048 12.6841 15.6398 12.0193ZM46.7958 8.85826C46.5166 16.8925 46.2374 24.9274 45.9591 32.9615C42.9988 29.5298 39.9684 28.1309 36.8954 27.9463L41.8719 4.91406C43.5309 5.70811 45.1738 6.97814 46.7958 8.85826Z" fill="#016644"/>
</g>
<path d="M45.9589 32.9613C31.2857 15.9478 14.8773 48.9089 0.204102 31.8952C0.483125 23.8608 0.761992 15.8265 1.04101 7.79214C15.7143 24.8057 32.1226 -8.15543 46.7958 8.85827C46.5168 16.8927 46.2379 24.9269 45.9589 32.9613Z" stroke="#002325" stroke-width="0.5" stroke-miterlimit="10" stroke-linecap="round" stroke-linejoin="round"/>
<path d="M45.9589 32.9613C31.2857 15.9478 14.8773 48.9089 0.204102 31.8952C0.483125 23.8608 0.761992 15.8265 1.04101 7.79214C15.7143 24.8057 32.1226 -8.15543 46.7958 8.85827C46.5168 16.8927 46.2379 24.9269 45.9589 32.9613Z" stroke="#002325" stroke-width="0.5" stroke-miterlimit="10" stroke-linecap="round" stroke-linejoin="round"/>
<path d="M43.9713 9.38687C43.7645 15.3435 43.5577 21.3003 43.3507 27.257C30.3007 17.3735 16.0783 41.25 3.02832 31.3665C3.23512 25.4099 3.44192 19.453 3.64888 13.4964C16.6991 23.38 30.9213 -0.496618 43.9713 9.38687Z" stroke="#002325" stroke-width="0.5" stroke-miterlimit="10" stroke-linecap="round" stroke-linejoin="round"/>
<path d="M43.9711 9.38695C43.9379 10.3457 43.9045 11.3044 43.8713 12.2632C42.3609 11.1164 41.1646 9.38646 41.2202 7.78711C42.1423 8.17095 43.0596 8.69662 43.9711 9.38695ZM43.4505 24.3809C43.4173 25.3397 43.3839 26.2984 43.3507 27.2572C42.4392 26.5669 41.5219 26.0412 40.5996 25.6572C40.6545 24.0801 41.9402 23.2341 43.4505 24.3809ZM5.77939 32.9666C4.85725 32.5826 3.93996 32.0569 3.02832 31.3666C3.06153 30.4079 3.0949 29.4492 3.12812 28.4903C4.63854 29.6371 5.83485 31.3672 5.77939 32.9666ZM6.39994 15.0964C6.34511 16.6736 5.05935 17.5196 3.54908 16.3727C3.58229 15.414 3.61566 14.4553 3.64888 13.4965C4.56036 14.1868 5.47765 14.7124 6.39994 15.0964Z" fill="#002325"/>
<path d="M28.7186 17.8372C28.6183 20.7257 26.2035 24.1226 23.3175 25.6357C20.4315 27.149 18.1802 25.8366 18.2816 22.916C18.3819 20.0275 20.7967 16.6307 23.6827 15.1175C26.5687 13.6044 28.8201 14.9169 28.7186 17.8372Z" fill="#FEBF26"/>
<path d="M28.7186 17.8372C28.6183 20.7257 26.2035 24.1226 23.3175 25.6357C20.4315 27.149 18.1802 25.8366 18.2816 22.916C18.3819 20.0275 20.7967 16.6307 23.6827 15.1175C26.5687 13.6044 28.8201 14.9169 28.7186 17.8372Z" stroke="#002325" stroke-width="0.5" stroke-miterlimit="10" stroke-linecap="round" stroke-linejoin="round"/>
</g>
<defs>
<clipPath id="clip0_8651_2874">
<rect width="47" height="41" fill="white"/>
</clipPath>
</defs>
</svg>
