<svg width="24" height="24" viewBox="0 0 24 24" fill="none" xmlns="http://www.w3.org/2000/svg">
<path fill-rule="evenodd" clip-rule="evenodd" d="M21.407 16.0065C21.407 21.9305 16.2345 23.3175 14.921 23.574C14.818 23.5945 14.761 23.607 14.6625 23.6185C14.5985 23.6233 14.5342 23.6254 14.47 23.625L9.70001 23.6215C9.63951 23.6215 9.43901 23.6135 9.42901 23.613C9.06531 23.585 8.70321 23.5391 8.34401 23.4755C6.46001 23.15 3.02001 22.1225 2.64501 18.932C2.33151 16.262 3.47251 14.929 4.90551 13.147C6.06051 11.7105 5.15551 9.585 5.14851 9.565C5.17851 9.581 7.09501 10.635 7.55251 11.537C7.78684 11.9643 7.97459 12.4156 8.11251 12.883C8.10351 12.8095 7.70251 9.502 9.41251 7.278C11.142 5.028 11.505 4.3385 11.5375 3.188C11.4679 2.21089 11.2121 1.25609 10.784 0.375C12.4562 1.43574 13.8733 2.85285 14.934 4.525C15.7605 5.83648 16.2195 7.34592 16.263 8.8955C16.711 8.45032 17.061 7.9164 17.2905 7.328C17.4656 6.6522 17.5033 5.94814 17.4015 5.2575L18.4585 7.0575C19.645 9.231 21.407 12.966 21.407 16.0065Z" fill="#D75C1E"/>
<path fill-rule="evenodd" clip-rule="evenodd" d="M21.4071 16.0065C21.4071 12.966 19.6451 9.23099 18.4571 7.05999L17.4001 5.25999C17.5019 5.95064 17.4642 6.65469 17.2891 7.33049C17.0599 7.91908 16.7099 8.45307 16.2616 8.89799C16.2181 7.34856 15.7591 5.83927 14.9326 4.52799C14.502 3.87697 14.0232 3.25923 13.5001 2.67999C13.3911 3.62699 12.9301 4.39799 11.4001 6.38549C9.68906 8.60949 10.0906 11.917 10.1001 11.9905C9.962 11.523 9.77443 11.0716 9.54056 10.644C9.23695 10.1744 8.83903 9.77309 8.37206 9.46549C8.08754 10.5809 7.99923 11.7373 8.11106 12.883C7.973 12.4155 7.78543 11.9641 7.55156 11.5365C7.50255 11.4424 7.4448 11.3532 7.37906 11.27C7.28987 11.6293 7.12408 11.9652 6.89306 12.2545C5.46006 14.0365 4.31906 15.3695 4.63256 18.0395C5.00756 21.23 8.44706 22.258 10.3326 22.583C10.7367 22.6555 11.1447 22.7043 11.5546 22.729L16.6086 22.7325H16.6116L16.6756 22.723C17.094 22.6539 17.5066 22.5536 17.9101 22.423C19.6416 21.38 21.4071 19.4675 21.4071 16.0065Z" fill="#FF6600"/>
<path d="M16.6241 19.8765C16.6271 17.621 14.6531 14.589 14.6531 14.589C14.7032 14.9289 14.6846 15.2754 14.5986 15.608C14.4856 15.8974 14.3134 16.16 14.0931 16.379C14.0713 15.6168 13.8454 14.8743 13.4391 14.229C12.9174 13.4059 12.2201 12.7084 11.3971 12.1865C11.4754 12.8887 11.4538 13.5984 11.3331 14.2945C10.9871 15.9085 9.90008 16.6825 8.56608 18.1155C8.00608 18.757 7.20858 20.007 7.39308 21.3155C7.42189 21.5258 7.47387 21.7322 7.54808 21.931C7.62685 22.1358 7.71682 22.3361 7.81758 22.531C7.97221 22.8335 8.20136 23.0916 8.48339 23.281C8.76543 23.4704 9.09106 23.5849 9.42958 23.6135C9.43958 23.6135 9.64008 23.622 9.70058 23.622L14.4701 23.6255C14.5291 23.6255 14.6231 23.6255 14.6626 23.619L14.6886 23.6155C14.8781 23.546 16.6201 22.8295 16.6241 19.8765Z" fill="#FF8300"/>
<path fill-rule="evenodd" clip-rule="evenodd" d="M14.6529 14.589C14.703 14.9288 14.6844 15.2751 14.5984 15.6075C14.4855 15.8971 14.3133 16.1599 14.0929 16.379C14.071 15.6168 13.8452 14.8743 13.4389 14.229C13.3569 14.1055 13.2739 13.988 13.1889 13.879C12.7464 15.1845 11.7489 15.94 10.5529 17.225C9.99289 17.867 9.19539 19.1165 9.37989 20.425C9.38439 20.4575 9.39489 20.5085 9.41139 20.575C9.56826 21.1797 9.91942 21.716 10.4109 22.1016C10.9023 22.4871 11.5068 22.7006 12.1314 22.709L13.2634 22.732H13.7214C14.4775 22.7389 15.2058 22.4476 15.7486 21.9213C16.2914 21.395 16.605 20.6759 16.6214 19.92V19.8785C16.6269 17.621 14.6529 14.589 14.6529 14.589Z" fill="#FFA511"/>
</svg>
