<svg width="130" height="24" viewBox="0 0 130 24" fill="none" xmlns="http://www.w3.org/2000/svg">
<g clip-path="url(#clip0_8295_2496)">
<path fill-rule="evenodd" clip-rule="evenodd" d="M11.7117 0C16.09 0 18.2793 -0.000122952 19.9099 0.964452C20.9781 1.59638 21.8654 2.50546 22.4822 3.6C23.4235 5.27076 23.4234 7.51392 23.4234 12C23.4234 16.4861 23.4235 18.7292 22.4822 20.4C21.8654 21.4945 20.9781 22.4036 19.9099 23.0356C18.2793 24.0001 16.09 24 11.7117 24C7.33341 24 5.14413 24.0001 3.51351 23.0356C2.44527 22.4036 1.55803 21.4945 0.941282 20.4C-0.000119999 18.7292 0 16.4861 0 12C0 7.51392 -0.000119999 5.27076 0.941282 3.6C1.55803 2.50546 2.44527 1.59638 3.51351 0.964452C5.14413 -0.000122952 7.33341 0 11.7117 0ZM12.8829 2.4C7.7083 2.4 3.51351 6.69804 3.51351 12C3.51351 17.302 7.7083 21.6 12.8829 21.6C18.0575 21.6 22.2523 17.302 22.2523 12C22.2523 6.69804 18.0575 2.4 12.8829 2.4Z" fill="#FF4D00"/>
<path d="M21.0811 12C21.0811 15.3137 18.4593 18 15.2252 18C11.9912 18 9.36938 15.3137 9.36938 12C9.36938 8.68632 11.9912 6 15.2252 6C18.4593 6 21.0811 8.68632 21.0811 12Z" fill="#FF4D00"/>
<path d="M125.629 6.75522C126.938 6.75522 127.991 7.16718 128.787 7.99116C129.595 8.802 130 9.9399 130 11.4047V17.7806H127.304V11.7775C127.304 10.9273 127.092 10.2799 126.669 9.83526C126.245 9.37752 125.667 9.14862 124.935 9.14862C124.203 9.14862 123.619 9.37752 123.183 9.83526C122.759 10.2799 122.547 10.9273 122.547 11.7775V17.7806H119.851V11.7775C119.851 10.9273 119.639 10.2799 119.215 9.83526C118.792 9.37752 118.214 9.14862 117.482 9.14862C116.738 9.14862 116.147 9.37752 115.711 9.83526C115.287 10.2799 115.075 10.9273 115.075 11.7775V17.7806H112.379V6.91218H115.075V8.22654C115.421 7.7688 115.865 7.40916 116.404 7.14756C116.956 6.88602 117.559 6.75522 118.214 6.75522C119.048 6.75522 119.793 6.93834 120.448 7.30452C121.103 7.65762 121.61 8.16768 121.969 8.8347C122.316 8.20692 122.817 7.7034 123.471 7.32414C124.139 6.94482 124.858 6.75522 125.629 6.75522Z" fill="#391300"/>
<path d="M110.392 6.91212V17.7806H107.677V16.4073C107.33 16.8781 106.875 17.2508 106.31 17.5255C105.758 17.7871 105.154 17.9179 104.499 17.9179C103.665 17.9179 102.927 17.7413 102.285 17.3882C101.643 17.022 101.136 16.4923 100.763 15.7991C100.404 15.0929 100.224 14.2558 100.224 13.288V6.91212H102.92V12.8957C102.92 13.7588 103.132 14.4259 103.556 14.8967C103.979 15.3545 104.557 15.5833 105.289 15.5833C106.034 15.5833 106.618 15.3545 107.042 14.8967C107.465 14.4259 107.677 13.7588 107.677 12.8957V6.91212H110.392Z" fill="#391300"/>
<path d="M94.5833 17.9571C93.7102 17.9571 92.9267 17.8002 92.2333 17.4863C91.54 17.1593 90.9884 16.7212 90.5773 16.1719C90.1791 15.6226 89.9613 15.0144 89.9226 14.3474H92.638C92.6895 14.7659 92.8886 15.1125 93.2347 15.3872C93.5942 15.6618 94.0375 15.7991 94.564 15.7991C95.0775 15.7991 95.4751 15.6945 95.758 15.4853C96.0531 15.276 96.2007 15.0079 96.2007 14.6809C96.2007 14.3278 96.0209 14.0662 95.6613 13.8962C95.3147 13.7131 94.7566 13.5169 93.986 13.3076C93.1902 13.1114 92.5355 12.9088 92.0219 12.6995C91.5213 12.4902 91.0844 12.1698 90.712 11.7382C90.3524 11.3066 90.1727 10.7246 90.1727 9.99222C90.1727 9.39054 90.3395 8.84124 90.6739 8.34426C91.02 7.84728 91.5084 7.45494 92.1373 7.16718C92.7791 6.87948 93.5304 6.7356 94.3906 6.7356C95.6613 6.7356 96.6756 7.06254 97.4333 7.71648C98.1905 8.35734 98.608 9.2271 98.6853 10.3257H96.1046C96.066 9.89412 95.8862 9.55404 95.5653 9.30558C95.2573 9.04398 94.8398 8.91318 94.3133 8.91318C93.8255 8.91318 93.4467 9.00474 93.1773 9.18786C92.9202 9.37098 92.792 9.62598 92.792 9.95298C92.792 10.3192 92.9718 10.6004 93.3313 10.7965C93.6908 10.9796 94.2495 11.1693 95.0067 11.3654C95.7773 11.5616 96.4127 11.7644 96.9133 11.9736C97.414 12.1829 97.8444 12.5098 98.2034 12.9545C98.5758 13.3861 98.7685 13.9616 98.7813 14.6809C98.7813 15.3087 98.608 15.8711 98.2613 16.3681C97.9276 16.865 97.4398 17.2574 96.798 17.5451C96.1685 17.8198 95.4306 17.9571 94.5833 17.9571Z" fill="#391300"/>
<path d="M80.8184 8.4816C81.165 7.98462 81.6399 7.5726 82.2437 7.24566C82.8597 6.90564 83.5595 6.7356 84.3424 6.7356C85.2542 6.7356 86.0757 6.96444 86.8077 7.42224C87.552 7.87998 88.1364 8.53392 88.5604 9.384C88.9966 10.2211 89.2151 11.1955 89.2151 12.3071C89.2151 13.4188 88.9966 14.4062 88.5604 15.2695C88.1364 16.1195 87.552 16.78 86.8077 17.2509C86.0757 17.7217 85.2542 17.9571 84.3424 17.9571C83.5595 17.9571 82.8661 17.7937 82.2624 17.4667C81.6721 17.1397 81.1908 16.7277 80.8184 16.2307V22.9597H78.1223V6.91218H80.8184V8.4816ZM86.4611 12.3071C86.4611 11.6532 86.3264 11.0908 86.0564 10.6199C85.7999 10.136 85.4533 9.76986 85.0164 9.52134C84.593 9.27288 84.131 9.14862 83.6297 9.14862C83.142 9.14862 82.6799 9.27942 82.2437 9.54096C81.8197 9.78948 81.473 10.1557 81.2037 10.6396C80.9466 11.1235 80.8184 11.6924 80.8184 12.3464C80.8184 13.0003 80.9466 13.5692 81.2037 14.0531C81.473 14.537 81.8197 14.9098 82.2437 15.1714C82.6799 15.4199 83.142 15.5441 83.6297 15.5441C84.131 15.5441 84.593 15.4133 85.0164 15.1517C85.4533 14.8901 85.7999 14.5174 86.0564 14.0335C86.3264 13.5496 86.4611 12.9742 86.4611 12.3071Z" fill="#391300"/>
<path d="M74.8038 5.61736C74.3283 5.61736 73.9307 5.46695 73.6098 5.16614C73.3012 4.85225 73.1472 4.46643 73.1472 4.00868C73.1472 3.55092 73.3012 3.17164 73.6098 2.87083C73.9307 2.55694 74.3283 2.39999 74.8038 2.39999C75.2787 2.39999 75.6705 2.55694 75.9785 2.87083C76.2994 3.17164 76.4599 3.55092 76.4599 4.00868C76.4599 4.46643 76.2994 4.85225 75.9785 5.16614C75.6705 5.46695 75.2787 5.61736 74.8038 5.61736ZM76.1325 6.91217V17.7806H73.4365V6.91217H76.1325Z" fill="#391300"/>
<path d="M66.5669 17.9571C65.5398 17.9571 64.6152 17.7283 63.7936 17.2705C62.972 16.7996 62.3238 16.1392 61.8483 15.2891C61.3862 14.4389 61.1555 13.4581 61.1555 12.3464C61.1555 11.2346 61.3927 10.2538 61.8676 9.40362C62.356 8.55354 63.0171 7.8996 63.8516 7.44186C64.686 6.97098 65.6165 6.7356 66.6436 6.7356C67.6707 6.7356 68.6018 6.97098 69.4363 7.44186C70.2707 7.8996 70.9254 8.55354 71.4009 9.40362C71.8887 10.2538 72.1323 11.2346 72.1323 12.3464C72.1323 13.4581 71.8823 14.4389 71.3816 15.2891C70.8938 16.1392 70.2257 16.7996 69.3783 17.2705C68.5439 17.7283 67.6069 17.9571 66.5669 17.9571ZM66.5669 15.5637C67.0547 15.5637 67.5103 15.446 67.9343 15.2106C68.3705 14.9621 68.7172 14.5959 68.9743 14.112C69.2307 13.6281 69.3596 13.0396 69.3596 12.3464C69.3596 11.3131 69.0896 10.5219 68.5503 9.9726C68.0239 9.41016 67.3756 9.129 66.6056 9.129C65.8349 9.129 65.1867 9.41016 64.6602 9.9726C64.1467 10.5219 63.8902 11.3131 63.8902 12.3464C63.8902 13.3796 64.1402 14.1774 64.6409 14.7398C65.1545 15.2891 65.7963 15.5637 66.5669 15.5637Z" fill="#391300"/>
<path d="M54.9602 17.9571C53.933 17.9571 53.0086 17.7283 52.1869 17.2705C51.3653 16.7996 50.7169 16.1392 50.2419 15.2891C49.7797 14.4389 49.5486 13.4581 49.5486 12.3464C49.5486 11.2346 49.7861 10.2538 50.2611 9.40362C50.749 8.55354 51.4102 7.8996 52.2447 7.44186C53.0793 6.97098 54.0101 6.7356 55.0372 6.7356C56.0643 6.7356 56.9951 6.97098 57.8296 7.44186C58.664 7.8996 59.3187 8.55354 59.7942 9.40362C60.282 10.2538 60.5256 11.2346 60.5256 12.3464C60.5256 13.4581 60.2756 14.4389 59.7749 15.2891C59.2871 16.1392 58.619 16.7996 57.7718 17.2705C56.9373 17.7283 56.0001 17.9571 54.9602 17.9571ZM54.9602 15.5637C55.448 15.5637 55.9038 15.446 56.3275 15.2106C56.764 14.9621 57.1107 14.5959 57.3674 14.112C57.6242 13.6281 57.7526 13.0396 57.7526 12.3464C57.7526 11.3131 57.483 10.5219 56.9438 9.9726C56.4174 9.41016 55.769 9.129 54.9987 9.129C54.2283 9.129 53.58 9.41016 53.0536 9.9726C52.54 10.5219 52.2833 11.3131 52.2833 12.3464C52.2833 13.3796 52.5336 14.1774 53.0343 14.7398C53.5479 15.2891 54.1898 15.5637 54.9602 15.5637Z" fill="#391300"/>
<path d="M43.3532 17.9571C42.3262 17.9571 41.4018 17.7283 40.5801 17.2705C39.7584 16.7996 39.11 16.1392 38.635 15.2891C38.1728 14.4389 37.9417 13.4581 37.9417 12.3464C37.9417 11.2346 38.1792 10.2538 38.6542 9.40362C39.1421 8.55354 39.8033 7.8996 40.6378 7.44186C41.4724 6.97098 42.4032 6.7356 43.4303 6.7356C44.4574 6.7356 45.3882 6.97098 46.2227 7.44186C47.0573 7.8996 47.712 8.55354 48.1871 9.40362C48.675 10.2538 48.9189 11.2346 48.9189 12.3464C48.9189 13.4581 48.6685 14.4389 48.1678 15.2891C47.6799 16.1392 47.0123 16.7996 46.165 17.2705C45.3305 17.7283 44.3932 17.9571 43.3532 17.9571ZM43.3532 15.5637C43.8411 15.5637 44.2969 15.446 44.7206 15.2106C45.1571 14.9621 45.5038 14.5959 45.7605 14.112C46.0173 13.6281 46.1457 13.0396 46.1457 12.3464C46.1457 11.3131 45.8761 10.5219 45.3368 9.9726C44.8105 9.41016 44.1621 9.129 43.3918 9.129C42.6214 9.129 41.9731 9.41016 41.4467 9.9726C40.9331 10.5219 40.6763 11.3131 40.6763 12.3464C40.6763 13.3796 40.9267 14.1774 41.4274 14.7398C41.941 15.2891 42.5829 15.5637 43.3532 15.5637Z" fill="#391300"/>
<path d="M33.1466 15.6029H37.576V17.7805H30.4504V4.08714H33.1466V15.6029Z" fill="#391300"/>
<path d="M57.5772 18.4137C57.7945 18.3244 58.0071 18.2229 58.2148 18.1089L58.2193 18.1064C59.1364 17.5969 59.8801 16.8929 60.44 16.0053V18.1621C60.3802 21.0653 58.0604 23.4 55.2077 23.4H54.9207C52.068 23.4 49.7485 21.0653 49.6887 18.1621H52.5272C52.5858 19.4624 53.635 20.4981 54.9207 20.4981H55.2077C56.4093 20.4981 57.4043 19.5934 57.5772 18.4137Z" fill="#391300"/>
</g>
<defs>
<clipPath id="clip0_8295_2496">
<rect width="130" height="24" fill="white"/>
</clipPath>
</defs>
</svg>
