<svg width="29" height="29" viewBox="0 0 29 29" fill="none" xmlns="http://www.w3.org/2000/svg">
<path d="M23.1309 13.8842L20.9605 5.78435C20.8199 5.25952 20.2812 4.94851 19.7573 5.08886L3.74666 9.37894C3.22274 9.51929 2.91172 10.0581 3.05236 10.5828L5.22272 18.6827C5.36336 19.2075 5.90206 19.5185 6.42599 19.3782L22.4367 15.0881C22.9605 14.9477 23.2715 14.409 23.1309 13.8842Z" fill="#14A36D"/>
<path d="M23.1309 13.8842L20.9605 5.78435C20.8199 5.25952 20.2812 4.94851 19.7573 5.08886L3.74666 9.37894C3.22274 9.51929 2.91172 10.0581 3.05236 10.5828L5.22272 18.6827C5.36336 19.2075 5.90206 19.5185 6.42599 19.3782L22.4367 15.0881C22.9605 14.9477 23.2715 14.409 23.1309 13.8842ZM21.4457 11.4404C20.2265 12.1366 19.4691 13.4471 19.4766 14.8508L8.87066 17.6926C8.17534 16.4732 6.86416 15.717 5.46021 15.7236L4.73759 13.0267C5.95678 12.3305 6.71355 11.0211 6.70664 9.61626L17.3135 6.77415C18.0091 7.99447 19.3192 8.75005 20.7231 8.74343L21.4457 11.4404Z" fill="#15BE79"/>
<path d="M16.5708 11.301C16.1229 9.62966 14.5692 8.54867 12.9066 8.63658C12.6585 8.64865 12.4085 8.6875 12.1587 8.75439C10.2376 9.26914 9.0971 11.2445 9.61185 13.1656C9.72938 13.6042 9.92315 14.0024 10.1748 14.3488C11.0255 15.522 12.5407 16.1105 14.0233 15.7133C15.9453 15.1983 17.0858 13.223 16.5708 11.301Z" fill="#15BE79"/>
<path d="M14.8809 13.681C14.7095 13.978 14.4344 14.2134 14.0559 14.3871L14.1526 14.7479C14.2158 14.972 14.1002 15.1722 13.8745 15.2294C13.6569 15.2907 13.4482 15.1747 13.393 14.9514L13.3014 14.6096C12.8561 14.6877 12.3486 14.6628 11.9375 14.507C11.681 14.445 11.5852 14.1342 11.6859 13.9095C11.7922 13.6853 11.9625 13.6932 12.2031 13.7507C12.4276 13.8126 12.6346 13.8465 12.8238 13.8522C13.3244 13.8649 14.1887 13.6635 14.0315 13.0301C13.9009 12.6301 13.3803 12.733 12.9818 12.7076C12.3883 12.6936 11.9839 12.7488 11.5212 12.4342C11.3293 12.3002 11.1943 12.0876 11.1163 11.7964C10.9158 11.0664 11.3881 10.4019 12.0716 10.0955L11.9749 9.73478C11.9111 9.51382 12.0337 9.30907 12.2528 9.25328C12.477 9.19001 12.6771 9.3055 12.7343 9.53133L12.8276 9.87944C13.221 9.82829 13.616 9.87627 14.0127 10.0232C14.1636 10.0747 14.2395 10.1652 14.2814 10.3175C14.3368 10.4968 14.2508 10.7552 14.0655 10.8027C13.9414 10.8331 13.8852 10.8184 13.7409 10.7812C13.5384 10.7179 13.3613 10.6771 13.2095 10.659C12.7488 10.6034 11.9201 10.8768 12.0803 11.4704C12.221 11.9126 12.753 11.8121 13.1798 11.827C13.5082 11.8204 13.781 11.8298 13.9982 11.8553C14.2153 11.8809 14.4173 11.9601 14.6046 12.0931C15.0476 12.4075 15.1875 13.2073 14.8809 13.681Z" fill="#14A36D"/>
<path d="M24.9624 21.829V13.4434C24.9624 12.9001 24.5225 12.4602 23.9801 12.4602H7.40462C6.86223 12.4602 6.42236 12.9001 6.42236 13.4434V21.829C6.42236 22.3723 6.86223 22.8122 7.40462 22.8122H23.9801C24.5225 22.8121 24.9624 22.3723 24.9624 21.829Z" fill="#15BE79"/>
<path d="M24.9624 21.829V13.4434C24.9624 12.9001 24.5225 12.4602 23.9801 12.4602H7.40462C6.86223 12.4602 6.42236 12.9001 6.42236 13.4434V21.829C6.42236 22.3723 6.86223 22.8122 7.40462 22.8122H23.9801C24.5225 22.8121 24.9624 22.3723 24.9624 21.829ZM23.967 19.0322C22.6092 19.3892 21.5384 20.459 21.1824 21.8168H10.2023C9.84634 20.459 8.77555 19.3892 7.41771 19.0322V16.2401C8.77555 15.8832 9.84544 14.8142 10.2023 13.4555H21.1834C21.5393 14.8142 22.6092 15.8832 23.9671 16.2401V19.0322H23.967Z" fill="#33DB92"/>
<path d="M19.2942 17.6359C19.2942 15.9056 18.0732 14.4593 16.4446 14.1139C16.2018 14.0614 15.9502 14.0342 15.6916 14.0342C13.7027 14.0342 12.0898 15.647 12.0898 17.636C12.0898 18.09 12.174 18.5248 12.3274 18.9245C12.8454 20.2778 14.1568 21.2386 15.6916 21.2386C17.6813 21.2385 19.2942 19.6257 19.2942 17.6359Z" fill="#33DB92"/>
<path d="M17.046 19.4973C16.8036 19.7398 16.4769 19.896 16.0664 19.9659V20.3394C16.0695 20.5722 15.9061 20.7356 15.6732 20.7325C15.4471 20.7353 15.2756 20.5693 15.2801 20.3394V19.9855C14.8297 19.9457 14.346 19.7903 13.9892 19.5334C13.7575 19.4071 13.7454 19.0822 13.9008 18.8912C14.0616 18.7021 14.2239 18.7538 14.4414 18.8716C14.6423 18.9896 14.8335 19.0758 15.0148 19.1304C15.495 19.2722 16.382 19.3013 16.3941 18.6488C16.3714 18.2286 15.842 18.1933 15.4636 18.0656C14.8941 17.8984 14.4891 17.8472 14.1236 17.4234C13.973 17.2444 13.8975 17.0041 13.8975 16.7026C13.8928 15.9456 14.521 15.426 15.2605 15.307V14.9335C15.2561 14.7035 15.4274 14.5375 15.6537 14.5403C15.8865 14.5372 16.05 14.7006 16.0468 14.9335V15.2938C16.44 15.3462 16.8091 15.4948 17.1542 15.7394C17.2866 15.8282 17.3366 15.9353 17.3377 16.0933C17.3447 16.2808 17.1948 16.5082 17.0035 16.5061C16.8757 16.5033 16.8253 16.4747 16.6955 16.4013C16.5164 16.2877 16.3558 16.2025 16.2139 16.1457C15.7833 15.9728 14.9121 16.0224 14.9132 16.6372C14.9346 17.1007 15.4745 17.1413 15.883 17.2662C16.2018 17.3448 16.463 17.4246 16.6661 17.5054C16.8692 17.5862 17.0439 17.715 17.1903 17.892C17.5366 18.3104 17.4649 19.1192 17.046 19.4973Z" fill="#15BE79"/>
</svg>
