<svg width="189" height="156" viewBox="0 0 189 156" fill="none" xmlns="http://www.w3.org/2000/svg">
<g clip-path="url(#clip0_8295_2720)">
<path d="M94.2336 22.2411C100.15 22.2411 104.946 17.462 104.946 11.5668C104.946 5.6716 100.15 0.892578 94.2336 0.892578C88.3171 0.892578 83.5208 5.6716 83.5208 11.5668C83.5208 17.462 88.3171 22.2411 94.2336 22.2411Z" fill="#FFC107"/>
<path d="M94.2328 23.1349C87.8311 23.1349 82.6235 17.9461 82.6235 11.5675C82.6235 5.18878 87.8317 0 94.2328 0C100.634 0 105.842 5.18878 105.842 11.5675C105.842 17.9461 100.635 23.1349 94.2328 23.1349ZM94.2328 1.7858C88.8204 1.7858 84.4158 6.17392 84.4158 11.5675C84.4158 16.961 88.8198 21.3491 94.2328 21.3491C99.6459 21.3491 104.05 16.961 104.05 11.5675C104.05 6.17392 99.6459 1.7858 94.2328 1.7858Z" fill="#1A1F25"/>
<path d="M51.5825 53.9017C53.9391 11.549 95.903 11.7119 95.903 11.7119C95.903 11.7119 135.025 13.0819 138.807 55.3319C144.502 118.963 158.447 124.829 159.482 136.186C159.482 136.186 142.683 121.619 94.1018 120.823C45.5211 120.026 28.8004 134.54 28.8004 134.54C28.1164 130.827 48.0902 116.667 51.5825 53.9017Z" fill="#B6B8BA"/>
<path d="M111.99 15.6292C111.99 15.6292 123.938 28.8835 125.72 51.607C128.048 81.2969 123.2 102.438 127.977 123.946C127.977 123.946 151.675 129.342 159.481 133.889C159.481 133.889 147.824 112.137 143.349 86.4311C136.819 48.9242 138.731 25.7658 111.99 15.6292Z" fill="#A3A5A7"/>
<g opacity="0.7">
<path d="M58.5676 67.1232C58.5714 62.4828 58.81 57.85 59.3337 53.2229C59.8624 48.6002 60.8053 43.9864 62.3952 39.5343C64.1022 35.1455 66.588 30.9375 70.0669 27.6834C73.5483 24.4371 77.7646 22.1435 82.1692 20.6562C78.0605 22.8237 74.161 25.3607 71.0397 28.6572C67.9285 31.9537 65.591 35.8917 64.0717 40.1612C62.4066 44.3845 61.5032 48.8969 60.692 53.4194C59.8916 57.9514 59.3076 62.5411 58.5676 67.1232Z" fill="white"/>
</g>
<g opacity="0.7">
<path d="M45.698 120.914C47.1416 120.33 48.0374 119.019 48.785 117.74C49.5237 116.431 50.1688 115.07 50.6581 113.637C51.6881 110.799 52.4968 107.866 53.1635 104.895C53.8844 101.937 54.4564 98.9323 55.0538 95.9262C55.6792 92.922 56.1506 89.8867 56.8689 86.866C56.9338 93.0545 56.2811 99.2379 54.9068 105.304C54.1828 108.323 53.3041 111.338 51.921 114.171C51.2561 115.592 50.4398 116.958 49.5052 118.232C48.4955 119.402 47.3038 120.712 45.698 120.914Z" fill="white"/>
</g>
<path d="M30.7937 100.275C29.5231 100.275 28.3919 99.3736 28.152 98.081C19.1494 49.3782 43.6805 18.5986 44.729 17.313C45.6656 16.1617 47.3567 15.9906 48.5063 16.9205C49.6598 17.8518 49.8367 19.5387 48.904 20.688C48.6641 20.9847 24.9066 50.9376 33.4417 97.1111C33.7095 98.566 32.745 99.9626 31.2836 100.231C31.1188 100.261 30.9565 100.275 30.7937 100.275Z" fill="#1A1F25"/>
<path d="M3.81492 97.0374C2.48266 97.0374 1.32599 96.0516 1.1523 94.7C-5.20047 45.4621 16.7425 15.4185 17.6803 14.1627C18.5678 12.9766 20.2481 12.7326 21.4385 13.6118C22.6289 14.4924 22.8789 16.1704 21.9952 17.3584C21.7802 17.6494 0.423813 47.0355 6.48391 94.0173C6.67478 95.4861 5.63327 96.8269 4.16103 97.0158C4.04397 97.0304 3.92881 97.0374 3.81492 97.0374Z" fill="#1A1F25"/>
<path d="M158.206 100.275C158.044 100.275 157.881 100.261 157.717 100.231C156.255 99.9624 155.291 98.5652 155.558 97.111C164.118 50.8133 140.34 20.9859 140.098 20.6898C139.161 19.5424 139.336 17.8555 140.49 16.9223C141.64 15.9873 143.336 16.1635 144.271 17.3128C145.32 18.5985 169.851 49.378 160.848 98.0809C160.608 99.3716 159.478 100.275 158.206 100.275Z" fill="#1A1F25"/>
<path d="M185.185 97.0374C185.071 97.0374 184.956 97.0304 184.838 97.0145C183.366 96.8263 182.325 95.4848 182.516 94.016C188.576 47.0349 167.22 17.6487 167.004 17.3571C166.121 16.1691 166.371 14.4917 167.561 13.6105C168.755 12.7313 170.437 12.9772 171.319 14.1614C172.258 15.4173 194.2 45.4608 187.847 94.6994C187.675 96.0522 186.517 97.0374 185.185 97.0374Z" fill="#1A1F25"/>
<path d="M159.481 137.079C159.269 137.079 159.061 137.004 158.894 136.861C158.726 136.716 141.675 122.496 94.0871 121.716C46.5244 120.955 29.5536 135.071 29.3869 135.215C29.142 135.422 28.8022 135.483 28.5013 135.382C28.1984 135.275 27.9745 135.015 27.9166 134.7C27.7015 133.521 28.5592 132.2 30.2726 129.57C35.573 121.423 47.9878 102.345 50.6867 53.8531C53.0566 11.241 95.2909 10.8188 95.9017 10.8188C95.9036 10.8188 95.9036 10.8188 95.9055 10.8188C96.3324 10.8328 135.89 12.708 139.698 55.2534C143.689 99.8421 151.713 115.891 156.508 125.481C158.565 129.595 160.051 132.569 160.373 136.105C160.406 136.467 160.214 136.813 159.888 136.978C159.761 137.046 159.621 137.079 159.481 137.079ZM90.2246 119.899C91.5009 119.899 92.7943 119.909 94.1158 119.93C134.237 120.588 152.707 130.467 158.229 134.156C157.633 131.739 156.433 129.339 154.903 126.277C150.053 116.576 141.934 100.338 137.913 55.4113C134.247 14.4596 97.4356 12.6611 95.8711 12.6053C95.8622 12.6053 95.8533 12.6053 95.845 12.6053C93.846 12.6053 54.7471 13.1511 52.4764 53.9513C49.7533 102.919 37.1566 122.276 31.7772 130.542C31.4426 131.055 31.1156 131.559 30.8216 132.026C36.9447 128.222 54.4353 119.899 90.2246 119.899Z" fill="#1A1F25"/>
<path d="M107.862 125.589C106.981 125.442 106.1 125.442 105.219 125.442C104.631 125.442 104.044 125.296 103.458 125.296C102.135 125.296 100.814 125.149 99.4932 125.149C97.4375 125.149 95.2349 125.004 93.1799 125.004C93.1799 125.004 93.1799 125.004 93.0329 125.004H88.7752C86.8665 125.004 84.9578 125.004 83.0492 125.149C81.5801 125.004 80.1123 125.149 78.6445 125.149C49.8665 126.76 39.7358 133.05 39.7358 133.05C39.7358 138.17 57.208 142.559 80.6996 144.022C81.8747 144.169 82.9022 144.315 84.0773 144.315C87.1598 144.461 90.5376 144.608 93.7671 144.608H98.3187C100.962 144.608 103.311 144.608 105.66 144.461C106.247 144.608 106.688 144.461 107.129 144.461C108.45 144.461 109.478 144.461 110.653 144.315C132.382 143.291 148.093 139.634 148.093 134.806C148.092 134.806 136.493 128.222 107.862 125.589Z" fill="#26195D"/>
<path d="M159.782 136.669C159.839 126.294 130.52 117.725 94.2957 117.529C58.0719 117.333 28.6609 125.584 28.6043 135.959C28.5478 146.334 57.8672 154.903 94.091 155.099C130.315 155.295 159.726 147.043 159.782 136.669Z" fill="#FFC107"/>
<path d="M150.931 140.869C149.024 147.879 121.728 152.871 89.9429 152.009C58.158 151.147 33.9291 144.753 35.8365 137.743C37.1472 132.919 50.4361 129.058 68.9396 127.393C69.5631 127.346 70.1853 127.288 70.8089 127.24C74.9921 126.908 79.4266 126.673 84.0355 126.572C84.7798 126.547 85.5261 126.532 86.2744 126.528C89.7119 126.486 93.2443 126.505 96.8243 126.602C128.61 127.464 152.82 133.851 150.931 140.869Z" fill="#1A1F25"/>
<path d="M105.705 131.962C105.84 138.505 100.747 143.846 94.1813 143.979H93.7792C87.4818 143.846 82.2552 138.906 82.1216 132.497C82.1216 130.227 82.7915 128.09 83.9978 126.221C85.7398 126.088 87.4818 126.088 89.2238 126.088H93.1093C93.2435 126.088 93.2435 126.088 93.2435 126.088C95.1191 126.088 97.129 126.221 99.0052 126.221C100.211 126.221 101.417 126.355 102.623 126.355C103.159 126.355 103.695 126.488 104.231 126.488C105.036 128.09 105.705 129.96 105.705 131.962Z" fill="#FFC107"/>
<path d="M95.567 156C93.435 156 91.2781 155.972 89.1022 155.913C59.6537 155.114 35.6353 148.913 29.3366 140.485C27.8383 138.479 27.3675 136.402 27.9344 134.307C30.8769 123.438 62.2355 115.723 99.2813 116.719C128.732 117.518 152.748 123.718 159.047 132.146C160.545 134.15 161.016 136.229 160.449 138.323C157.68 148.554 129.749 156 95.567 156ZM93.1843 118.423C60.5781 118.423 32.157 125.568 29.6643 134.771C29.2425 136.332 29.6045 137.854 30.7739 139.418C36.6679 147.306 60.6742 153.354 89.1512 154.127C124.229 155.116 156.074 147.63 158.719 137.859C159.141 136.298 158.779 134.778 157.61 133.214C151.716 125.326 127.709 119.278 99.2323 118.505C97.2053 118.449 95.1833 118.423 93.1843 118.423Z" fill="#1A1F25"/>
<path d="M96.6837 152.993C94.4238 152.993 92.1658 152.963 89.918 152.902C62.6574 152.163 40.4034 147.336 35.7964 141.164C34.9127 139.978 34.634 138.748 34.9718 137.51C36.3601 132.401 49.0281 128.287 68.8594 126.504L70.7395 126.351C75.1295 126.002 79.5971 125.777 84.017 125.679C84.7595 125.655 85.5134 125.639 86.2718 125.636C89.8518 125.59 93.4173 125.618 96.8497 125.71C124.093 126.45 146.345 131.273 150.961 137.442C151.851 138.63 152.131 139.859 151.798 141.101C151.796 141.101 151.796 141.103 151.796 141.103C149.696 148.819 123.227 152.993 96.6837 152.993ZM89.668 127.4C88.5457 127.4 87.4189 127.407 86.2858 127.421C85.5382 127.425 84.8014 127.44 84.066 127.465C79.6702 127.561 75.2383 127.784 70.8814 128.129L69.0083 128.285C50.5353 129.945 37.8495 133.749 36.7011 137.977C36.5122 138.669 36.6871 139.363 37.2349 140.098C40.864 144.963 60.1418 150.308 89.967 151.116C123.965 152.044 148.484 146.441 150.067 140.635C150.252 139.941 150.076 139.245 149.524 138.509C145.887 133.648 126.608 128.304 96.8008 127.496C94.4728 127.432 92.0837 127.4 89.668 127.4Z" fill="#1A1F25"/>
<path d="M90.3092 141.34C93.0377 141.34 95.2496 139.136 95.2496 136.418C95.2496 133.699 93.0377 131.495 90.3092 131.495C87.5808 131.495 85.3689 133.699 85.3689 136.418C85.3689 139.136 87.5808 141.34 90.3092 141.34Z" fill="#FFDD77"/>
</g>
<defs>
<clipPath id="clip0_8295_2720">
<rect width="189" height="156" fill="white"/>
</clipPath>
</defs>
</svg>
