<svg width="24" height="24" viewBox="0 0 24 24" fill="none" xmlns="http://www.w3.org/2000/svg">
<path d="M3.67666 16.7743L3.07212 16.3304H3.07212L3.67666 16.7743ZM4.903 13.1769L4.153 13.1681V13.1769H4.903ZM4.92874 11.0019L5.67874 11.0108V11.0019H4.92874ZM20.3324 16.7918L20.9456 16.36L20.9456 16.36L20.3324 16.7918ZM19.1522 13.1769L18.4022 13.1676V13.1769H19.1522ZM19.1779 11.1097L19.9279 11.119V11.1097H19.1779ZM9.6408 20.0963C9.31007 19.847 8.83979 19.9129 8.59042 20.2436C8.34104 20.5744 8.40699 21.0447 8.73773 21.294L9.18926 20.6952L9.6408 20.0963ZM15.2647 21.294C15.5955 21.0447 15.6614 20.5744 15.412 20.2436C15.1627 19.9129 14.6924 19.847 14.3617 20.0963L14.8132 20.6952L15.2647 21.294ZM2.30385 5.72541C2.14973 6.10988 2.33646 6.5465 2.72093 6.70063C3.1054 6.85476 3.54202 6.66803 3.69615 6.28356L3 6.00448L2.30385 5.72541ZM6.52397 3.06028C6.88864 2.86384 7.02501 2.40897 6.82857 2.0443C6.63213 1.67963 6.17726 1.54326 5.81259 1.7397L6.16828 2.39999L6.52397 3.06028ZM18.1721 1.75326C17.8096 1.55295 17.3533 1.68448 17.153 2.04704C16.9526 2.4096 17.0842 2.8659 17.4467 3.0662L17.8094 2.40973L18.1721 1.75326ZM20.3009 6.2663C20.4509 6.65239 20.8855 6.84378 21.2716 6.69377C21.6577 6.54376 21.8491 6.10916 21.6991 5.72306L21 5.99468L20.3009 6.2663ZM3.67666 16.7743L4.28119 17.2182C4.97028 16.2797 5.653 14.8811 5.653 13.1769H4.903H4.153C4.153 14.4748 3.6311 15.5692 3.07212 16.3304L3.67666 16.7743ZM4.903 13.1769L5.65295 13.1858L5.67869 11.0108L4.92874 11.0019L4.1788 10.993L4.15306 13.1681L4.903 13.1769ZM20.3324 16.7918L20.9456 16.36C20.4099 15.5992 19.9022 14.4939 19.9022 13.1769H19.1522H18.4022C18.4022 14.8826 19.0575 16.2839 19.7191 17.2236L20.3324 16.7918ZM19.1522 13.1769L19.9021 13.1863L19.9278 11.119L19.1779 11.1097L18.428 11.1004L18.4022 13.1676L19.1522 13.1769ZM19.1779 11.1097H19.9279C19.9279 6.61914 16.4028 2.93495 12.0012 2.93495V3.68495V4.43495C15.5268 4.43495 18.4279 7.39911 18.4279 11.1097H19.1779ZM19.9029 17.7998V18.5498C20.5292 18.5498 20.9172 18.097 21.0728 17.7189C21.2294 17.3383 21.2576 16.8032 20.9456 16.36L20.3324 16.7918L19.7191 17.2236C19.6909 17.1835 19.6875 17.1518 19.6872 17.1455C19.6869 17.1403 19.6875 17.1435 19.6856 17.1481C19.6833 17.1537 19.6883 17.1365 19.7188 17.1117C19.7545 17.0827 19.8199 17.0498 19.9029 17.0498V17.7998ZM4.92874 11.0019H5.67874C5.67874 7.35085 8.53324 4.43495 12.0012 4.43495V3.68495V2.93495C7.65717 2.93495 4.17874 6.57088 4.17874 11.0019H4.92874ZM4.10062 17.7998V17.0498C4.18564 17.0498 4.2519 17.0841 4.28716 17.1133C4.31693 17.1379 4.32069 17.154 4.31766 17.1464C4.31505 17.1399 4.31553 17.135 4.31525 17.1392C4.31489 17.1446 4.31129 17.1772 4.28119 17.2182L3.67666 16.7743L3.07212 16.3304C2.74613 16.7744 2.77128 17.3185 2.92449 17.7024C3.07644 18.0832 3.46411 18.5498 4.10062 18.5498V17.7998ZM19.9029 17.7998V17.0498H4.10062V17.7998V18.5498H19.9029V17.7998ZM12.0012 21.6V20.85C11.0777 20.85 10.2521 20.5573 9.6408 20.0963L9.18926 20.6952L8.73773 21.294C9.61887 21.9584 10.7641 22.35 12.0012 22.35V21.6ZM14.8132 20.6952L14.3617 20.0963C13.7503 20.5573 12.9247 20.85 12.0012 20.85V21.6V22.35C13.2383 22.35 14.3836 21.9584 15.2647 21.294L14.8132 20.6952ZM3 6.00448L3.69615 6.28356C4.25127 4.89881 5.24147 3.75115 6.52397 3.06028L6.16828 2.39999L5.81259 1.7397C4.20046 2.60814 2.9808 4.03679 2.30385 5.72541L3 6.00448ZM17.8094 2.40973L17.4467 3.0662C18.7577 3.79048 19.7755 4.91393 20.3009 6.2663L21 5.99468L21.6991 5.72306C21.0373 4.01967 19.7676 2.63475 18.1721 1.75326L17.8094 2.40973Z" fill="#171818"/>
</svg>
