<svg width="84" height="40" viewBox="0 0 84 40" fill="none" xmlns="http://www.w3.org/2000/svg">
<path fill-rule="evenodd" clip-rule="evenodd" d="M9.13813 12.485C9.29818 12.1625 9.62717 11.9585 9.98723 11.9585C10.3473 11.9585 10.6763 12.1625 10.8363 12.485L12.4899 15.8169L16.1698 16.36C16.5259 16.4125 16.8216 16.6624 16.9329 17.0048C17.0441 17.3473 16.9518 17.7232 16.6945 17.9751L14.0367 20.5773L14.6573 24.2449C14.7174 24.5999 14.5712 24.9583 14.2799 25.17C13.9886 25.3816 13.6025 25.4099 13.2835 25.243L9.98723 23.5195L6.69099 25.243C6.37189 25.4099 5.98582 25.3816 5.69453 25.17C5.40324 24.9583 5.257 24.5999 5.31712 24.2449L5.93779 20.5773L3.27992 17.9751C3.02262 17.7232 2.93026 17.3473 3.04155 17.0048C3.15279 16.6624 3.44846 16.4125 3.8047 16.36L7.48453 15.8169L9.13813 12.485Z" fill="url(#paint0_linear_8295_2877)"/>
<path fill-rule="evenodd" clip-rule="evenodd" d="M9.9873 12.0105C10.3474 12.0105 10.6763 12.2145 10.8364 12.537L12.49 15.8689L16.1698 16.412C16.526 16.4645 16.8217 16.7144 16.933 17.0568C16.9347 17.0623 16.9365 17.0677 16.9381 17.0733L9.9873 19.3136V12.0105Z" fill="url(#paint1_linear_8295_2877)"/>
<path fill-rule="evenodd" clip-rule="evenodd" d="M9.98746 19.3136L3.03662 17.0733C3.03825 17.0677 3.03999 17.0623 3.04179 17.0568C3.15303 16.7144 3.4487 16.4645 3.80494 16.412L7.48477 15.8689L9.13836 12.537C9.29842 12.2145 9.62741 12.0105 9.98746 12.0105V19.3136Z" fill="url(#paint2_linear_8295_2877)"/>
<path fill-rule="evenodd" clip-rule="evenodd" d="M14.2858 25.1516C14.2771 25.1583 14.2682 25.1649 14.2591 25.1715C13.9678 25.3813 13.5818 25.4094 13.2627 25.244L9.96649 23.5351L6.67026 25.244C6.35666 25.4065 5.9784 25.3822 5.68896 25.1821L9.96649 19.3136L14.2858 25.1516Z" fill="url(#paint3_linear_8295_2877)"/>
<path fill-rule="evenodd" clip-rule="evenodd" d="M9.75342 25.1977V28.3907C9.75342 28.5199 9.85831 28.6248 9.98752 28.6248C10.1167 28.6248 10.2216 28.5199 10.2216 28.3907V25.1977C10.2216 25.0686 10.1167 24.9637 9.98752 24.9637C9.85831 24.9637 9.75342 25.0686 9.75342 25.1977Z" fill="url(#paint4_radial_8295_2877)"/>
<path fill-rule="evenodd" clip-rule="evenodd" d="M15.6322 21.2246L18.6499 22.268C18.772 22.3103 18.9054 22.2454 18.9476 22.1233C18.9899 22.0012 18.925 21.8678 18.8029 21.8256L15.7852 20.7822C15.6631 20.74 15.5297 20.8048 15.4875 20.9269C15.4453 21.049 15.5102 21.1825 15.6322 21.2246Z" fill="url(#paint5_radial_8295_2877)"/>
<path fill-rule="evenodd" clip-rule="evenodd" d="M4.18946 20.7822L1.17182 21.8256C1.04968 21.8678 0.984853 22.0012 1.02704 22.1233C1.06929 22.2454 1.20266 22.3103 1.3248 22.268L4.34249 21.2246C4.46457 21.1825 4.5294 21.049 4.48721 20.9269C4.44497 20.8048 4.31159 20.74 4.18946 20.7822Z" fill="url(#paint6_radial_8295_2877)"/>
<path fill-rule="evenodd" clip-rule="evenodd" d="M13.9786 14.3474L15.7885 11.717C15.8618 11.6106 15.8348 11.4647 15.7284 11.3915C15.6219 11.3182 15.4761 11.3452 15.4028 11.4516L13.593 14.0821C13.5198 14.1885 13.5467 14.3344 13.6531 14.4076C13.7596 14.4808 13.9054 14.4539 13.9786 14.3474Z" fill="url(#paint7_radial_8295_2877)"/>
<path fill-rule="evenodd" clip-rule="evenodd" d="M6.61132 14.0643L4.55835 11.6188C4.47526 11.5198 4.3275 11.5069 4.22857 11.59C4.12958 11.6731 4.11672 11.8208 4.19981 11.9198L6.25273 14.3653C6.33582 14.4642 6.48357 14.4771 6.58256 14.394C6.68149 14.3109 6.69436 14.1632 6.61132 14.0643Z" fill="url(#paint8_radial_8295_2877)"/>
<path fill-rule="evenodd" clip-rule="evenodd" d="M40.2772 4.96997C40.5973 4.32491 41.2553 3.91693 41.9754 3.91693C42.6955 3.91693 43.3535 4.32491 43.6736 4.96997L46.9808 11.6338L54.3405 12.7199C55.0528 12.825 55.6442 13.3247 55.8668 14.0095C56.0893 14.6945 55.9045 15.4463 55.39 15.9501L50.0743 21.1546L51.3157 28.4897C51.4358 29.1997 51.1433 29.9165 50.5607 30.3399C49.9781 30.7631 49.206 30.8197 48.5679 30.486L41.9754 27.0388L35.383 30.486C34.7448 30.8197 33.9726 30.7631 33.39 30.3399C32.8075 29.9165 32.515 29.1997 32.6352 28.4897L33.8766 21.1546L28.5608 15.9501C28.0462 15.4463 27.8615 14.6945 28.0841 14.0095C28.3066 13.3247 28.8979 12.825 29.6104 12.7199L36.97 11.6338L40.2772 4.96997Z" fill="url(#paint9_linear_8295_2877)"/>
<path fill-rule="evenodd" clip-rule="evenodd" d="M41.9756 4.021C42.6957 4.021 43.3537 4.42897 43.6738 5.07403L46.981 11.7379L54.3406 12.8239C55.053 12.9291 55.6444 13.4288 55.8669 14.1136C55.8704 14.1246 55.8739 14.1355 55.8773 14.1465L41.9756 18.6272V4.021Z" fill="url(#paint10_linear_8295_2877)"/>
<path fill-rule="evenodd" clip-rule="evenodd" d="M41.9749 18.6272L28.0732 14.1465C28.0765 14.1355 28.08 14.1246 28.0836 14.1136C28.3061 13.4288 28.8974 12.9291 29.6099 12.8239L36.9695 11.7379L40.2767 5.07403C40.5968 4.42897 41.2548 4.021 41.9749 4.021V18.6272Z" fill="url(#paint11_linear_8295_2877)"/>
<path fill-rule="evenodd" clip-rule="evenodd" d="M50.5716 30.3032C50.5541 30.3166 50.5364 30.3299 50.5183 30.3429C49.9357 30.7626 49.1637 30.8188 48.5255 30.488L41.933 27.0701L35.3405 30.488C34.7133 30.813 33.9568 30.7644 33.3779 30.3643L41.933 18.6272L50.5716 30.3032Z" fill="url(#paint12_linear_8295_2877)"/>
<path fill-rule="evenodd" clip-rule="evenodd" d="M41.5068 30.3955V36.7815C41.5068 37.0399 41.7166 37.2497 41.975 37.2497C42.2334 37.2497 42.4431 37.0399 42.4431 36.7815V30.3955C42.4431 30.1372 42.2334 29.9274 41.975 29.9274C41.7166 29.9274 41.5068 30.1372 41.5068 30.3955Z" fill="url(#paint13_radial_8295_2877)"/>
<path fill-rule="evenodd" clip-rule="evenodd" d="M53.2654 22.4493L59.3008 24.536C59.545 24.6205 59.8119 24.4907 59.8962 24.2466C59.9807 24.0024 59.851 23.7356 59.6068 23.6512L53.5714 21.5643C53.3272 21.48 53.0604 21.6096 52.976 21.8539C52.8915 22.0981 53.0213 22.3649 53.2654 22.4493Z" fill="url(#paint14_radial_8295_2877)"/>
<path fill-rule="evenodd" clip-rule="evenodd" d="M30.3794 21.5643L24.3441 23.6512C24.0999 23.7356 23.9702 24.0024 24.0546 24.2466C24.1391 24.4907 24.4058 24.6205 24.6501 24.536L30.6855 22.4493C30.9296 22.3649 31.0593 22.0981 30.9749 21.8539C30.8904 21.6096 30.6237 21.48 30.3794 21.5643Z" fill="url(#paint15_radial_8295_2877)"/>
<path fill-rule="evenodd" clip-rule="evenodd" d="M49.9582 8.69482L53.578 3.43392C53.7245 3.22111 53.6706 2.92931 53.4578 2.78291C53.2449 2.63639 52.9532 2.69032 52.8067 2.90325L49.1869 8.16415C49.0405 8.37696 49.0944 8.66875 49.3072 8.81516C49.5201 8.96167 49.8118 8.90774 49.9582 8.69482Z" fill="url(#paint16_radial_8295_2877)"/>
<path fill-rule="evenodd" clip-rule="evenodd" d="M35.2226 8.12851L31.1167 3.2375C30.9505 3.03964 30.655 3.01379 30.4571 3.17997C30.2592 3.34615 30.2334 3.64166 30.3996 3.83952L34.5055 8.73054C34.6716 8.9284 34.9671 8.95413 35.1651 8.78806C35.363 8.62188 35.3887 8.32638 35.2226 8.12851Z" fill="url(#paint17_radial_8295_2877)"/>
<path fill-rule="evenodd" clip-rule="evenodd" d="M73.1391 12.485C73.2992 12.1625 73.6281 11.9585 73.9882 11.9585C74.3483 11.9585 74.6772 12.1625 74.8373 12.485L76.4909 15.8169L80.1707 16.36C80.5269 16.4125 80.8226 16.6624 80.9339 17.0048C81.0451 17.3473 80.9528 17.7232 80.6955 17.9751L78.0376 20.5773L78.6583 24.2449C78.7184 24.5999 78.5721 24.9583 78.2808 25.17C77.9896 25.3816 77.6035 25.4099 77.2844 25.243L73.9882 23.5195L70.692 25.243C70.3729 25.4099 69.9868 25.3816 69.6955 25.17C69.4042 24.9583 69.258 24.5999 69.3181 24.2449L69.9388 20.5773L67.2809 17.9751C67.0236 17.7232 66.9312 17.3473 67.0425 17.0048C67.1538 16.6624 67.4494 16.4125 67.8057 16.36L71.4855 15.8169L73.1391 12.485Z" fill="url(#paint18_linear_8295_2877)"/>
<path fill-rule="evenodd" clip-rule="evenodd" d="M73.9883 12.0105C74.3483 12.0105 74.6773 12.2145 74.8374 12.537L76.491 15.8689L80.1708 16.412C80.527 16.4645 80.8227 16.7144 80.934 17.0568C80.9357 17.0623 80.9374 17.0677 80.9391 17.0733L73.9883 19.3136V12.0105Z" fill="url(#paint19_linear_8295_2877)"/>
<path fill-rule="evenodd" clip-rule="evenodd" d="M73.988 19.3136L67.0371 17.0733C67.0387 17.0677 67.0405 17.0623 67.0423 17.0568C67.1535 16.7144 67.4492 16.4645 67.8054 16.412L71.4853 15.8689L73.1389 12.537C73.2989 12.2145 73.6279 12.0105 73.988 12.0105V19.3136Z" fill="url(#paint20_linear_8295_2877)"/>
<path fill-rule="evenodd" clip-rule="evenodd" d="M78.2863 25.1516C78.2775 25.1583 78.2687 25.1649 78.2596 25.1715C77.9683 25.3813 77.5823 25.4094 77.2632 25.244L73.967 23.5351L70.6707 25.244C70.3571 25.4065 69.9789 25.3822 69.6895 25.1821L73.967 19.3136L78.2863 25.1516Z" fill="url(#paint21_linear_8295_2877)"/>
<path fill-rule="evenodd" clip-rule="evenodd" d="M73.7539 25.1977V28.3907C73.7539 28.5199 73.8588 28.6248 73.988 28.6248C74.1172 28.6248 74.2221 28.5199 74.2221 28.3907V25.1977C74.2221 25.0686 74.1172 24.9637 73.988 24.9637C73.8588 24.9637 73.7539 25.0686 73.7539 25.1977Z" fill="url(#paint22_radial_8295_2877)"/>
<path fill-rule="evenodd" clip-rule="evenodd" d="M79.6332 21.2246L82.6509 22.268C82.773 22.3103 82.9064 22.2454 82.9486 22.1233C82.9909 22.0012 82.926 21.8678 82.8039 21.8256L79.7862 20.7822C79.6641 20.74 79.5307 20.8048 79.4885 20.9269C79.4462 21.049 79.5111 21.1825 79.6332 21.2246Z" fill="url(#paint23_radial_8295_2877)"/>
<path fill-rule="evenodd" clip-rule="evenodd" d="M68.1899 20.7822L65.1723 21.8256C65.0502 21.8678 64.9853 22.0012 65.0275 22.1233C65.0698 22.2454 65.2032 22.3103 65.3253 22.268L68.343 21.2246C68.4651 21.1825 68.5299 21.049 68.4877 20.9269C68.4455 20.8048 68.3121 20.74 68.1899 20.7822Z" fill="url(#paint24_radial_8295_2877)"/>
<path fill-rule="evenodd" clip-rule="evenodd" d="M77.9796 14.3474L79.7895 11.717C79.8627 11.6106 79.8358 11.4647 79.7294 11.3915C79.6229 11.3182 79.4771 11.3452 79.4038 11.4516L77.5939 14.0821C77.5207 14.1885 77.5477 14.3344 77.6541 14.4076C77.7606 14.4808 77.9064 14.4539 77.9796 14.3474Z" fill="url(#paint25_radial_8295_2877)"/>
<path fill-rule="evenodd" clip-rule="evenodd" d="M70.6118 14.0643L68.5588 11.6188C68.4757 11.5198 68.328 11.5069 68.2291 11.59C68.1301 11.6731 68.1172 11.8208 68.2003 11.9198L70.2532 14.3653C70.3363 14.4642 70.4841 14.4771 70.583 14.394C70.682 14.3109 70.6948 14.1632 70.6118 14.0643Z" fill="url(#paint26_radial_8295_2877)"/>
<defs>
<linearGradient id="paint0_linear_8295_2877" x1="9.98723" y1="17.3464" x2="9.98723" y2="24.2038" gradientUnits="userSpaceOnUse">
<stop stop-color="#FFB541"/>
<stop offset="1" stop-color="#F59500"/>
</linearGradient>
<linearGradient id="paint1_linear_8295_2877" x1="9.75318" y1="12.3202" x2="14.6907" y2="19.1029" gradientUnits="userSpaceOnUse">
<stop stop-color="#FFD952"/>
<stop offset="1" stop-color="#FFA501"/>
</linearGradient>
<linearGradient id="paint2_linear_8295_2877" x1="6.18628" y1="13.2866" x2="10.8303" y2="17.6955" gradientUnits="userSpaceOnUse">
<stop stop-color="#FFDF6C"/>
<stop offset="1" stop-color="#FFA501"/>
</linearGradient>
<linearGradient id="paint3_linear_8295_2877" x1="9.98739" y1="16.8599" x2="9.98739" y2="24.1864" gradientUnits="userSpaceOnUse">
<stop stop-color="#FFA841"/>
<stop offset="1" stop-color="#F27B00"/>
</linearGradient>
<radialGradient id="paint4_radial_8295_2877" cx="0" cy="0" r="1" gradientUnits="userSpaceOnUse" gradientTransform="translate(9.9892 19.3117) rotate(18.851) scale(9.1839 9.18389)">
<stop stop-color="#FFA501"/>
<stop offset="0.57" stop-color="#FFAF0E"/>
<stop offset="1" stop-color="#FFD541"/>
</radialGradient>
<radialGradient id="paint5_radial_8295_2877" cx="0" cy="0" r="1" gradientUnits="userSpaceOnUse" gradientTransform="translate(9.98903 19.3117) rotate(18.851) scale(9.18389)">
<stop stop-color="#FFA501"/>
<stop offset="0.57" stop-color="#FFAF0E"/>
<stop offset="1" stop-color="#FFD541"/>
</radialGradient>
<radialGradient id="paint6_radial_8295_2877" cx="0" cy="0" r="1" gradientUnits="userSpaceOnUse" gradientTransform="translate(9.98906 19.3117) rotate(18.851) scale(9.18389)">
<stop stop-color="#FFA501"/>
<stop offset="0.57" stop-color="#FFAF0E"/>
<stop offset="1" stop-color="#FFD541"/>
</radialGradient>
<radialGradient id="paint7_radial_8295_2877" cx="0" cy="0" r="1" gradientUnits="userSpaceOnUse" gradientTransform="translate(9.98902 19.3117) rotate(18.851) scale(9.18389)">
<stop stop-color="#FFA501"/>
<stop offset="0.57" stop-color="#FFAF0E"/>
<stop offset="1" stop-color="#FFD541"/>
</radialGradient>
<radialGradient id="paint8_radial_8295_2877" cx="0" cy="0" r="1" gradientUnits="userSpaceOnUse" gradientTransform="translate(9.98913 19.3117) rotate(18.851) scale(9.18389)">
<stop stop-color="#FFA501"/>
<stop offset="0.57" stop-color="#FFAF0E"/>
<stop offset="1" stop-color="#FFD541"/>
</radialGradient>
<linearGradient id="paint9_linear_8295_2877" x1="41.9754" y1="14.6928" x2="41.9754" y2="28.4075" gradientUnits="userSpaceOnUse">
<stop stop-color="#FFB541"/>
<stop offset="1" stop-color="#F59500"/>
</linearGradient>
<linearGradient id="paint10_linear_8295_2877" x1="41.5073" y1="4.64044" x2="51.3824" y2="18.2058" gradientUnits="userSpaceOnUse">
<stop stop-color="#FFD952"/>
<stop offset="1" stop-color="#FFA501"/>
</linearGradient>
<linearGradient id="paint11_linear_8295_2877" x1="34.3726" y1="6.5732" x2="43.6607" y2="15.391" gradientUnits="userSpaceOnUse">
<stop stop-color="#FFDF6C"/>
<stop offset="1" stop-color="#FFA501"/>
</linearGradient>
<linearGradient id="paint12_linear_8295_2877" x1="41.9748" y1="13.7198" x2="41.9748" y2="28.3727" gradientUnits="userSpaceOnUse">
<stop stop-color="#FFA841"/>
<stop offset="1" stop-color="#F27B00"/>
</linearGradient>
<radialGradient id="paint13_radial_8295_2877" cx="0" cy="0" r="1" gradientUnits="userSpaceOnUse" gradientTransform="translate(41.9784 18.6234) rotate(18.851) scale(18.3678 18.3678)">
<stop stop-color="#FFA501"/>
<stop offset="0.57" stop-color="#FFAF0E"/>
<stop offset="1" stop-color="#FFD541"/>
</radialGradient>
<radialGradient id="paint14_radial_8295_2877" cx="0" cy="0" r="1" gradientUnits="userSpaceOnUse" gradientTransform="translate(41.979 18.6233) rotate(18.851) scale(18.3678)">
<stop stop-color="#FFA501"/>
<stop offset="0.57" stop-color="#FFAF0E"/>
<stop offset="1" stop-color="#FFD541"/>
</radialGradient>
<radialGradient id="paint15_radial_8295_2877" cx="0" cy="0" r="1" gradientUnits="userSpaceOnUse" gradientTransform="translate(41.9786 18.6233) rotate(18.851) scale(18.3678)">
<stop stop-color="#FFA501"/>
<stop offset="0.57" stop-color="#FFAF0E"/>
<stop offset="1" stop-color="#FFD541"/>
</radialGradient>
<radialGradient id="paint16_radial_8295_2877" cx="0" cy="0" r="1" gradientUnits="userSpaceOnUse" gradientTransform="translate(41.979 18.6234) rotate(18.851) scale(18.3678 18.3678)">
<stop stop-color="#FFA501"/>
<stop offset="0.57" stop-color="#FFAF0E"/>
<stop offset="1" stop-color="#FFD541"/>
</radialGradient>
<radialGradient id="paint17_radial_8295_2877" cx="0" cy="0" r="1" gradientUnits="userSpaceOnUse" gradientTransform="translate(41.9783 18.6233) rotate(18.851) scale(18.3678 18.3678)">
<stop stop-color="#FFA501"/>
<stop offset="0.57" stop-color="#FFAF0E"/>
<stop offset="1" stop-color="#FFD541"/>
</radialGradient>
<linearGradient id="paint18_linear_8295_2877" x1="73.9882" y1="17.3464" x2="73.9882" y2="24.2038" gradientUnits="userSpaceOnUse">
<stop stop-color="#FFB541"/>
<stop offset="1" stop-color="#F59500"/>
</linearGradient>
<linearGradient id="paint19_linear_8295_2877" x1="73.7542" y1="12.3202" x2="78.6917" y2="19.1029" gradientUnits="userSpaceOnUse">
<stop stop-color="#FFD952"/>
<stop offset="1" stop-color="#FFA501"/>
</linearGradient>
<linearGradient id="paint20_linear_8295_2877" x1="70.1868" y1="13.2866" x2="74.8308" y2="17.6955" gradientUnits="userSpaceOnUse">
<stop stop-color="#FFDF6C"/>
<stop offset="1" stop-color="#FFA501"/>
</linearGradient>
<linearGradient id="paint21_linear_8295_2877" x1="73.9879" y1="16.8599" x2="73.9879" y2="24.1864" gradientUnits="userSpaceOnUse">
<stop stop-color="#FFA841"/>
<stop offset="1" stop-color="#F27B00"/>
</linearGradient>
<radialGradient id="paint22_radial_8295_2877" cx="0" cy="0" r="1" gradientUnits="userSpaceOnUse" gradientTransform="translate(73.9897 19.3117) rotate(18.851) scale(9.1839 9.18389)">
<stop stop-color="#FFA501"/>
<stop offset="0.57" stop-color="#FFAF0E"/>
<stop offset="1" stop-color="#FFD541"/>
</radialGradient>
<radialGradient id="paint23_radial_8295_2877" cx="0" cy="0" r="1" gradientUnits="userSpaceOnUse" gradientTransform="translate(73.99 19.3117) rotate(18.851) scale(9.18389)">
<stop stop-color="#FFA501"/>
<stop offset="0.57" stop-color="#FFAF0E"/>
<stop offset="1" stop-color="#FFD541"/>
</radialGradient>
<radialGradient id="paint24_radial_8295_2877" cx="0" cy="0" r="1" gradientUnits="userSpaceOnUse" gradientTransform="translate(73.9896 19.3117) rotate(18.851) scale(9.18389)">
<stop stop-color="#FFA501"/>
<stop offset="0.57" stop-color="#FFAF0E"/>
<stop offset="1" stop-color="#FFD541"/>
</radialGradient>
<radialGradient id="paint25_radial_8295_2877" cx="0" cy="0" r="1" gradientUnits="userSpaceOnUse" gradientTransform="translate(73.99 19.3117) rotate(18.851) scale(9.18389)">
<stop stop-color="#FFA501"/>
<stop offset="0.57" stop-color="#FFAF0E"/>
<stop offset="1" stop-color="#FFD541"/>
</radialGradient>
<radialGradient id="paint26_radial_8295_2877" cx="0" cy="0" r="1" gradientUnits="userSpaceOnUse" gradientTransform="translate(73.9896 19.3117) rotate(18.851) scale(9.18389)">
<stop stop-color="#FFA501"/>
<stop offset="0.57" stop-color="#FFAF0E"/>
<stop offset="1" stop-color="#FFD541"/>
</radialGradient>
</defs>
</svg>
