<svg width="72" height="72" viewBox="0 0 72 72" fill="none" xmlns="http://www.w3.org/2000/svg">
<path d="M69.75 36C69.75 38.88 66.2119 41.2537 65.5031 43.9087C64.7719 46.6537 66.6225 50.4788 65.2331 52.8806C63.8213 55.3219 59.5744 55.6144 57.5944 57.5944C55.6144 59.5744 55.3219 63.8213 52.8806 65.2331C50.4788 66.6225 46.6537 64.7719 43.9087 65.5031C41.2537 66.2119 38.88 69.75 36 69.75C33.12 69.75 30.7462 66.2119 28.0912 65.5031C25.3462 64.7719 21.5213 66.6225 19.1194 65.2331C16.6781 63.8213 16.3856 59.5744 14.4056 57.5944C12.4256 55.6144 8.17875 55.3219 6.76687 52.8806C5.3775 50.4788 7.22813 46.6537 6.49688 43.9087C5.78813 41.2537 2.25 38.88 2.25 36C2.25 33.12 5.78813 30.7462 6.49688 28.0912C7.22813 25.3462 5.3775 21.5213 6.76687 19.1194C8.17875 16.6781 12.4256 16.3856 14.4056 14.4056C16.3856 12.4256 16.6781 8.17875 19.1194 6.76687C21.5213 5.3775 25.3462 7.22813 28.0912 6.49688C30.7462 5.78813 33.12 2.25 36 2.25C38.88 2.25 41.2537 5.78813 43.9087 6.49688C46.6537 7.22813 50.4788 5.3775 52.8806 6.76687C55.3219 8.17875 55.6144 12.4256 57.5944 14.4056C59.5744 16.3856 63.8213 16.6781 65.2331 19.1194C66.6225 21.5213 64.7719 25.3462 65.5031 28.0912C66.2119 30.7462 69.75 33.12 69.75 36Z" fill="#198754"/>
<path d="M45.7538 25.9425L32.9063 38.79L26.2463 32.1356C24.8006 30.69 22.455 30.69 21.0094 32.1356C19.5638 33.5812 19.5638 35.9269 21.0094 37.3725L30.3525 46.7156C31.7588 48.1219 34.0425 48.1219 35.4488 46.7156L50.985 31.1794C52.4306 29.7337 52.4306 27.3881 50.985 25.9425C49.5394 24.4969 47.1994 24.4969 45.7538 25.9425Z" fill="white"/>
</svg>
