<svg width="40" height="40" viewBox="0 0 40 40" fill="none" xmlns="http://www.w3.org/2000/svg">
<path d="M36.875 33.75H3.125C2.77982 33.75 2.5 34.0298 2.5 34.375V36.875C2.5 37.2202 2.77982 37.5 3.125 37.5H36.875C37.2202 37.5 37.5 37.2202 37.5 36.875V34.375C37.5 34.0298 37.2202 33.75 36.875 33.75Z" fill="#536882"/>
<path d="M9.375 27.5H4.375V33.75H9.375V27.5Z" fill="#23C97C"/>
<path d="M18.125 23.75H13.125V33.75H18.125V23.75Z" fill="#23C97C"/>
<path d="M26.875 18.75H21.875V33.75H26.875V18.75Z" fill="#23C97C"/>
<path d="M37.5 12.5H35.625V33.75H30.625V12.5H28.75L33.125 6.17499L37.5 12.5Z" fill="#23C97C"/>
<path d="M23.75 11.25C23.75 11.25 18.9937 16.25 13.125 16.25C7.25625 16.25 2.5 11.25 2.5 11.25C2.5 11.25 7.25625 6.25 13.125 6.25C18.9937 6.25 23.75 11.25 23.75 11.25Z" fill="#D3DCE5"/>
<path d="M13.125 16.25C15.8864 16.25 18.125 14.0114 18.125 11.25C18.125 8.48858 15.8864 6.25 13.125 6.25C10.3636 6.25 8.125 8.48858 8.125 11.25C8.125 14.0114 10.3636 16.25 13.125 16.25Z" fill="#B8C3D5"/>
<path d="M15.625 11.25C15.625 12.6312 14.5062 13.75 13.125 13.75C11.7437 13.75 10.625 12.6312 10.625 11.25C10.625 9.86875 11.7437 8.75 13.125 8.75C13.1625 8.75 13.2 8.75 13.2375 8.75625C13.1625 8.95 13.125 9.15625 13.125 9.375C13.125 10.4125 13.9625 11.25 15 11.25C15.2188 11.25 15.425 11.2125 15.6187 11.1375C15.625 11.175 15.625 11.2125 15.625 11.25Z" fill="#536882"/>
<path d="M13.1251 4.375C12.7814 4.375 12.5001 4.09375 12.5001 3.75V2.5C12.5001 2.15625 12.7814 1.875 13.1251 1.875C13.4689 1.875 13.7501 2.15625 13.7501 2.5V3.75C13.7501 4.09375 13.4689 4.375 13.1251 4.375ZM16.1251 5C16.0439 5 15.9564 4.98125 15.8751 4.95C15.5564 4.8125 15.4126 4.44375 15.5501 4.125L16.0501 2.98125C16.1876 2.6625 16.5564 2.51875 16.8751 2.65625C17.1939 2.79375 17.3376 3.1625 17.2001 3.48125L16.7001 4.625C16.6001 4.8625 16.3689 5 16.1251 5ZM10.1251 5C9.88138 5 9.65638 4.8625 9.55013 4.625L9.05013 3.48125C8.91263 3.1625 9.05638 2.79375 9.37513 2.65625C9.69388 2.51875 10.0626 2.6625 10.2001 2.98125L10.7001 4.125C10.8376 4.44375 10.6939 4.8125 10.3751 4.95C10.2939 4.9875 10.2064 5 10.1251 5ZM13.1251 20.625C12.7814 20.625 12.5001 20.3438 12.5001 20V18.75C12.5001 18.4062 12.7814 18.125 13.1251 18.125C13.4689 18.125 13.7501 18.4062 13.7501 18.75V20C13.7501 20.3438 13.4689 20.625 13.1251 20.625ZM16.6251 19.8937C16.3814 19.8937 16.1564 19.7563 16.0501 19.5187L15.5501 18.375C15.4126 18.0562 15.5564 17.6875 15.8751 17.55C16.1939 17.4125 16.5626 17.5563 16.7001 17.875L17.2001 19.0187C17.3376 19.3375 17.1939 19.7062 16.8751 19.8438C16.7939 19.8813 16.7064 19.8937 16.6251 19.8937ZM9.62513 19.8937C9.54388 19.8937 9.45638 19.875 9.37513 19.8438C9.05638 19.7062 8.91263 19.3375 9.05013 19.0187L9.55013 17.875C9.68763 17.5563 10.0564 17.4125 10.3751 17.55C10.6939 17.6875 10.8376 18.0562 10.7001 18.375L10.2001 19.5187C10.1001 19.7563 9.86888 19.8937 9.62513 19.8937Z" fill="#D3DCE5"/>
</svg>
