<svg width="16" height="16" viewBox="0 0 16 16" fill="none" xmlns="http://www.w3.org/2000/svg">
<path d="M14.9847 5.67563C14.9847 5.6825 14.9847 5.68875 14.9803 5.69563L13.5628 12.1875C13.5191 12.4161 13.3971 12.6223 13.2178 12.7706C13.0385 12.9189 12.813 13.0001 12.5803 13H3.41965C3.18704 12.9999 2.96173 12.9187 2.78252 12.7704C2.6033 12.6221 2.48139 12.416 2.43778 12.1875L1.02028 5.69563C1.02028 5.68875 1.01715 5.6825 1.0159 5.67563C0.977108 5.46069 1.00975 5.23896 1.10884 5.04432C1.20792 4.84968 1.36801 4.69284 1.56464 4.59775C1.76126 4.50266 1.98361 4.47456 2.19771 4.51774C2.41181 4.56092 2.60588 4.67301 2.75028 4.83688L4.85465 7.105L7.09215 2.08688C7.09226 2.0848 7.09226 2.08271 7.09215 2.08063C7.17216 1.9071 7.30022 1.76012 7.46116 1.6571C7.6221 1.55408 7.80919 1.49933 8.00028 1.49933C8.19137 1.49933 8.37846 1.55408 8.5394 1.6571C8.70034 1.76012 8.82839 1.9071 8.9084 2.08063C8.9083 2.08271 8.9083 2.0848 8.9084 2.08688L11.1459 7.105L13.2503 4.83688C13.395 4.67423 13.5888 4.56324 13.8023 4.52076C14.0158 4.47828 14.2374 4.50664 14.4333 4.60153C14.6292 4.69642 14.7888 4.85266 14.8879 5.04651C14.987 5.24037 15.0201 5.46125 14.9822 5.67563H14.9847Z" fill="#171818"/>
</svg>
