<svg width="18" height="18" viewBox="0 0 18 18" fill="none" xmlns="http://www.w3.org/2000/svg">
<path d="M8.74965 0C3.92476 0 0 3.92475 0 8.74965C0 13.5745 3.92476 17.4993 8.74965 17.4993C13.5746 17.4993 17.4993 13.5745 17.4993 8.74965C17.4993 3.92475 13.5746 0 8.74965 0ZM8.74965 3.12485C10.4681 3.12485 11.8745 4.53136 11.8745 6.24978C11.8745 7.96819 10.4681 9.37463 8.74965 9.37463C7.03123 9.37463 5.62478 7.96819 5.62478 6.24978C5.62478 4.53136 7.03123 3.12485 8.74965 3.12485ZM6.24975 10.6246H11.2496C12.9559 10.6246 14.3494 12.0068 14.372 13.7079C12.9989 15.2644 10.9939 16.2493 8.74965 16.2493C6.5054 16.2493 4.5004 15.2644 3.12731 13.7079C3.14994 12.0068 4.54339 10.6246 6.24975 10.6246Z" fill="#171818"/>
</svg>
