<svg width="20" height="20" viewBox="0 0 20 20" fill="none" xmlns="http://www.w3.org/2000/svg">
<path d="M1.25 17.9999C1.24995 18.4141 1.5857 18.75 1.99992 18.75C2.41413 18.75 2.74995 18.4143 2.75 18.0001L2 18L1.25 17.9999ZM2.00034 14.9997L2.75034 14.9997L2.00034 14.9997ZM11 12.75C11.4142 12.75 11.75 12.4142 11.75 12C11.75 11.5858 11.4142 11.25 11 11.25V12V12.75ZM17.4697 15.0303C17.7626 15.3232 18.2374 15.3232 18.5303 15.0303C18.8232 14.7374 18.8232 14.2626 18.5303 13.9697L18 14.5L17.4697 15.0303ZM15.3484 10.7877C15.0555 10.4948 14.5806 10.4948 14.2877 10.7877C13.9948 11.0806 13.9948 11.5555 14.2877 11.8483L14.818 11.318L15.3484 10.7877ZM14.2878 13.9696C13.9949 14.2625 13.9949 14.7374 14.2878 15.0302C14.5807 15.3231 15.0555 15.3231 15.3484 15.0302L14.8181 14.4999L14.2878 13.9696ZM18.5304 11.8483C18.8233 11.5554 18.8233 11.0805 18.5304 10.7876C18.2375 10.4947 17.7626 10.4947 17.4698 10.7876L18.0001 11.3179L18.5304 11.8483ZM12 5H11.25C11.25 6.24264 10.2426 7.25 9 7.25V8V8.75C11.0711 8.75 12.75 7.07107 12.75 5H12ZM9 8V7.25C7.75736 7.25 6.75 6.24264 6.75 5H6H5.25C5.25 7.07107 6.92893 8.75 9 8.75V8ZM6 5H6.75C6.75 3.75736 7.75736 2.75 9 2.75V2V1.25C6.92893 1.25 5.25 2.92893 5.25 5H6ZM9 2V2.75C10.2426 2.75 11.25 3.75736 11.25 5H12H12.75C12.75 2.92893 11.0711 1.25 9 1.25V2ZM2 18L2.75 18.0001L2.75034 14.9997L2.00034 14.9997L1.25034 14.9996L1.25 17.9999L2 18ZM5.00034 12V11.25C2.92943 11.25 1.25057 12.9287 1.25034 14.9996L2.00034 14.9997L2.75034 14.9997C2.75048 13.7572 3.7578 12.75 5.00034 12.75V12ZM5.00034 12V12.75H11V12V11.25H5.00034V12ZM18 14.5L18.5303 13.9697L16.9393 12.3787L16.409 12.909L15.8787 13.4393L17.4697 15.0303L18 14.5ZM16.409 12.909L16.9393 12.3787L15.3484 10.7877L14.818 11.318L14.2877 11.8483L15.8787 13.4393L16.409 12.909ZM14.8181 14.4999L15.3484 15.0302L16.9393 13.4393L16.409 12.909L15.8787 12.3787L14.2878 13.9696L14.8181 14.4999ZM16.409 12.909L16.9393 13.4393L18.5304 11.8483L18.0001 11.3179L17.4698 10.7876L15.8787 12.3787L16.409 12.909Z" fill="#171818"/>
</svg>
