<svg width="22" height="23" viewBox="0 0 22 23" fill="none" xmlns="http://www.w3.org/2000/svg">
<path fill-rule="evenodd" clip-rule="evenodd" d="M10.5105 0H10.606C13.349 0 15.5721 2.31972 15.5721 5.18201C15.5721 8.04429 13.349 10.364 10.606 10.364H10.5105C7.76747 10.364 5.54441 8.04429 5.54441 5.18201C5.54441 2.31972 7.76747 0 10.5105 0ZM21.1271 21.7135V18.2976C21.1271 18.2976 17.2964 13.8464 11.0623 13.8464C10.8978 13.8464 10.728 13.8519 10.5636 13.8574C10.3991 13.8519 10.2346 13.8464 10.0648 13.8464C3.82538 13.8464 0 18.2976 0 18.2976V22.0678H21.1271V21.7135Z" fill="white"/>
</svg>
