<svg width="20" height="20" viewBox="0 0 20 20" fill="none" xmlns="http://www.w3.org/2000/svg">
<path d="M17.5 10.75C17.9142 10.75 18.25 10.4142 18.25 10C18.25 9.58579 17.9142 9.25 17.5 9.25V10V10.75ZM18 10H17.25C17.25 14.0041 14.0041 17.25 10 17.25V18V18.75C14.8325 18.75 18.75 14.8325 18.75 10H18ZM10 18V17.25C5.99593 17.25 2.75 14.0041 2.75 10H2H1.25C1.25 14.8325 5.16751 18.75 10 18.75V18ZM2 10H2.75C2.75 5.99593 5.99593 2.75 10 2.75V2V1.25C5.16751 1.25 1.25 5.16751 1.25 10H2ZM10 2V2.75C14.0041 2.75 17.25 5.99593 17.25 10H18H18.75C18.75 5.16751 14.8325 1.25 10 1.25V2ZM10 18V17.25C9.7649 17.25 9.4818 17.1442 9.15894 16.8321C8.83246 16.5165 8.50419 16.0235 8.21224 15.3562C7.62932 14.0238 7.25 12.1307 7.25 10H6.5H5.75C5.75 12.2876 6.15418 14.3944 6.83801 15.9575C7.17944 16.7379 7.60535 17.4165 8.11634 17.9105C8.63094 18.408 9.2686 18.75 10 18.75V18ZM6.5 10H7.25C7.25 7.86928 7.62932 5.97615 8.21224 4.64376C8.50419 3.97645 8.83246 3.48352 9.15894 3.16789C9.4818 2.85575 9.7649 2.75 10 2.75V2V1.25C9.2686 1.25 8.63094 1.59196 8.11634 2.08947C7.60535 2.58348 7.17944 3.26212 6.83801 4.04253C6.15418 5.60557 5.75 7.71244 5.75 10H6.5ZM10 18V18.75C10.7314 18.75 11.3691 18.408 11.8837 17.9105C12.3946 17.4165 12.8206 16.7379 13.162 15.9575C13.8458 14.3944 14.25 12.2876 14.25 10H13.5H12.75C12.75 12.1307 12.3707 14.0238 11.7878 15.3562C11.4958 16.0235 11.1675 16.5165 10.8411 16.8321C10.5182 17.1442 10.2351 17.25 10 17.25V18ZM13.5 10H14.25C14.25 7.71244 13.8458 5.60557 13.162 4.04253C12.8206 3.26212 12.3946 2.58348 11.8837 2.08947C11.3691 1.59196 10.7314 1.25 10 1.25V2V2.75C10.2351 2.75 10.5182 2.85575 10.8411 3.16789C11.1675 3.48352 11.4958 3.97645 11.7878 4.64376C12.3707 5.97615 12.75 7.86928 12.75 10H13.5ZM2 10L2 10.75L17.5 10.75V10V9.25L2 9.25L2 10Z" fill="#171818"/>
</svg>
