<svg width="20" height="20" viewBox="0 0 20 20" fill="none" xmlns="http://www.w3.org/2000/svg">
<path d="M13.727 16.6667H3.41699C3.28438 16.6667 3.15721 16.614 3.06344 16.5202C2.96967 16.4265 2.91699 16.2993 2.91699 16.1667V8.00003C2.91699 7.86742 2.96967 7.74024 3.06344 7.64647C3.15721 7.5527 3.28438 7.50003 3.41699 7.50003H5.72366C6.01147 7.50003 6.29438 7.4255 6.54483 7.2837C6.79528 7.1419 7.00475 6.93765 7.15283 6.69086L9.41116 2.92669C9.58148 2.6424 9.8498 2.43014 10.1657 2.32982C10.4815 2.2295 10.8231 2.24804 11.1263 2.38195C11.4294 2.51587 11.6732 2.75592 11.8118 3.05698C11.9503 3.35803 11.9741 3.69933 11.8787 4.01669L11.027 6.85669C11.0047 6.93128 11.0001 7.01006 11.0136 7.08674C11.0271 7.16341 11.0583 7.23588 11.1048 7.29836C11.1512 7.36084 11.2116 7.41161 11.2812 7.44662C11.3507 7.48163 11.4275 7.49992 11.5053 7.50003H15.3187C15.5749 7.5001 15.8276 7.55925 16.0573 7.67287C16.2869 7.78649 16.4873 7.95152 16.6428 8.15515C16.7983 8.35878 16.9047 8.59552 16.9539 8.84697C17.003 9.09843 16.9935 9.35783 16.9262 9.60503L15.3345 15.4384C15.2384 15.7909 15.0291 16.1021 14.7388 16.3241C14.4485 16.546 14.0924 16.6664 13.727 16.6667Z" stroke="#171818" stroke-width="1.5" stroke-linecap="round"/>
<path d="M5.83398 16.6667V7.5" stroke="#171818" stroke-width="1.5" stroke-linecap="round" stroke-linejoin="round"/>
</svg>
