<svg width="20" height="20" viewBox="0 0 20 20" fill="none" xmlns="http://www.w3.org/2000/svg">
<path d="M11.9996 12.3831V7.46113M4.17647 2.88312H10.0009C10.034 4.06234 11.0003 5.00812 12.1875 5.00812C13.3747 5.00812 14.341 4.06234 14.3741 2.88312H15.8235C17.5778 2.88312 19 4.30527 19 6.05959V13.9404C19 15.6947 17.5778 17.1168 15.8235 17.1168H14.3741C14.341 15.9376 13.3747 14.9918 12.1875 14.9918C11.0003 14.9918 10.034 15.9376 10.0009 17.1168H4.17648C2.42216 17.1168 1.00001 15.6947 1.00001 13.9404L1 6.05959C1 4.30527 2.42215 2.88312 4.17647 2.88312Z" stroke="#171818" stroke-width="1.5" stroke-linecap="round" stroke-linejoin="round"/>
</svg>
