<svg width="16" height="16" viewBox="0 0 16 16" fill="none" xmlns="http://www.w3.org/2000/svg">
<path d="M10.242 10.0743C10.504 10.1616 10.7871 10.0201 10.8744 9.75809C10.9618 9.49612 10.8202 9.21296 10.5582 9.12563L10.4001 9.59997L10.242 10.0743ZM8.0001 8.79997H7.5001C7.5001 9.01519 7.63781 9.20626 7.84198 9.27432L8.0001 8.79997ZM8.5001 5.45482C8.5001 5.17867 8.27624 4.95482 8.0001 4.95482C7.72395 4.95482 7.5001 5.17867 7.5001 5.45482H8.0001H8.5001ZM10.4001 9.59997L10.5582 9.12563L8.15821 8.32563L8.0001 8.79997L7.84198 9.27432L10.242 10.0743L10.4001 9.59997ZM8.0001 8.79997H8.5001V5.45482H8.0001H7.5001V8.79997H8.0001ZM14.4001 7.99997H13.9001C13.9001 11.2585 11.2586 13.9 8.0001 13.9V14.4V14.9C11.8109 14.9 14.9001 11.8107 14.9001 7.99997H14.4001ZM8.0001 14.4V13.9C4.74162 13.9 2.1001 11.2585 2.1001 7.99997H1.6001H1.1001C1.1001 11.8107 4.18933 14.9 8.0001 14.9V14.4ZM1.6001 7.99997H2.1001C2.1001 4.74149 4.74162 2.09998 8.0001 2.09998V1.59998V1.09998C4.18933 1.09998 1.1001 4.18921 1.1001 7.99997H1.6001ZM8.0001 1.59998V2.09998C11.2586 2.09998 13.9001 4.74149 13.9001 7.99997H14.4001H14.9001C14.9001 4.18921 11.8109 1.09998 8.0001 1.09998V1.59998Z" fill="#808283"/>
</svg>
